<?xml version="1.0" encoding="UTF-8"?>
<svg version="1.1" xmlns="http://www.w3.org/2000/svg" width="313" height="260">
<path d="M0 0 C4.07160513 2.53602834 6.52303816 5.69411449 8.05078125 10.27734375 C8.18042745 13.6769553 8.29863393 17.07054796 8.3046875 20.47265625 C8.33750131 22.86679927 8.33750131 22.86679927 9.05078125 26.27734375 C11.76208278 28.52988021 14.52934934 29.55807956 17.86328125 30.58984375 C21.90662164 32.02951798 24.94986166 34.21312185 28.2890625 36.875 C30.20868225 38.44342232 30.20868225 38.44342232 33.05078125 40.27734375 C33.05078125 40.93734375 33.05078125 41.59734375 33.05078125 42.27734375 C33.71078125 42.27734375 34.37078125 42.27734375 35.05078125 42.27734375 C42.59632225 52.07990874 46.01902693 64.09042738 48.29296875 76.03515625 C48.98024212 78.97555263 49.88004361 81.17085929 51.23828125 83.83984375 C53.55278604 89.12507307 53.42047645 94.41418713 53.42578125 100.08984375 C53.42731201 101.01031494 53.42884277 101.93078613 53.43041992 102.87915039 C53.35409836 107.53817684 52.95465252 110.97827959 51.05078125 115.27734375 C50.95785731 117.83903094 50.95785731 117.83903094 51.17578125 120.46484375 C51.31285034 127.71971482 49.06661972 133.34521506 44.98828125 139.27734375 C43.05078125 141.27734375 43.05078125 141.27734375 40.05078125 143.27734375 C37.94934431 146.42949916 37.79733646 147.45893648 37.61328125 151.08984375 C37.26246909 155.49094179 36.13843699 158.36298924 34.05078125 162.27734375 C33.90640625 163.39109375 33.76203125 164.50484375 33.61328125 165.65234375 C33.1195934 168.83388766 32.64451061 170.31158003 31.17578125 173.02734375 C29.45297242 176.22507525 28.43638334 179.25439918 27.55078125 182.77734375 C26.51235606 186.84219529 25.20268362 190.23578089 23.22265625 193.9140625 C21.31968906 197.751713 19.8077146 201.75049053 18.24487305 205.73535156 C16.58985183 209.9529684 14.85329659 214.12139591 13.05078125 218.27734375 C12.39078125 218.27734375 11.73078125 218.27734375 11.05078125 218.27734375 C11.05078125 218.93734375 11.05078125 219.59734375 11.05078125 220.27734375 C0.5470764 226.25506196 -9.19454864 225.80003165 -20.94921875 225.27734375 C-20.94921875 224.61734375 -20.94921875 223.95734375 -20.94921875 223.27734375 C-22.52703125 223.12265625 -22.52703125 223.12265625 -24.13671875 222.96484375 C-29.16090366 222.05884319 -31.70733407 220.7908907 -34.94921875 216.83984375 C-38.64408132 210.83193713 -41.35013744 203.89854734 -43.13671875 197.08984375 C-43.40484375 196.16171875 -43.67296875 195.23359375 -43.94921875 194.27734375 C-44.60921875 193.94734375 -45.26921875 193.61734375 -45.94921875 193.27734375 C-46.66015625 191.34375 -46.66015625 191.34375 -47.32421875 188.83984375 C-48.35140259 185.19801015 -49.51172199 181.71531297 -50.94921875 178.21484375 C-60.2978318 155.3231829 -60.2978318 155.3231829 -57.94921875 148.27734375 C-58.60921875 147.94734375 -59.26921875 147.61734375 -59.94921875 147.27734375 C-59.94921875 146.61734375 -59.94921875 145.95734375 -59.94921875 145.27734375 C-61.81260524 143.32945909 -61.81260524 143.32945909 -63.53515625 142.05078125 C-68.11165819 138.47351554 -71.35699969 134.9610833 -72.94921875 129.27734375 C-73.24702447 125.58162353 -73.19388439 121.9745134 -72.94921875 118.27734375 C-73.27921875 118.27734375 -73.60921875 118.27734375 -73.94921875 118.27734375 C-73.92859375 117.22546875 -73.90796875 116.17359375 -73.88671875 115.08984375 C-73.86859527 112.49818584 -73.97832834 110.0264468 -74.27734375 107.44921875 C-75.0411964 100.8402328 -74.84511932 94.92040808 -73.69921875 88.40234375 C-73.51685669 87.3505896 -73.51685669 87.3505896 -73.33081055 86.27758789 C-72.65819573 82.79793275 -71.79924999 79.9295359 -70.3828125 76.64453125 C-68.96613255 73.31707044 -68.54556814 70.85105415 -68.26171875 67.27734375 C-67.16484816 58.93918591 -63.18080069 52.39230594 -58.94921875 45.27734375 C-58.28921875 45.27734375 -57.62921875 45.27734375 -56.94921875 45.27734375 C-56.70816406 44.52710938 -56.46710938 43.776875 -56.21875 43.00390625 C-53.55406536 37.28098354 -46.49869602 33.05208239 -40.94921875 30.27734375 C-38.61738268 29.60545878 -36.28420733 28.93818958 -33.94921875 28.27734375 C-31.11738925 25.44551425 -31.45601472 22.45857493 -31.13671875 18.65234375 C-30.44795273 12.34915469 -29.83177573 6.79570067 -24.94921875 2.27734375 C-16.56651737 -3.56601952 -9.25832783 -4.49324719 0 0 Z M-19.07421875 10.65234375 C-21.64172943 14.24685871 -22.10428737 16.90147004 -22.13671875 21.21484375 C-22.15089844 22.06949219 -22.16507813 22.92414062 -22.1796875 23.8046875 C-21.84327484 27.41399616 -20.45636478 29.59464717 -18.32421875 32.46484375 C-15.02120398 34.98556555 -12.08341195 35.62648867 -7.94921875 35.27734375 C-3.20774461 32.87221591 -3.20774461 32.87221591 -0.94921875 28.27734375 C-0.82851606 25.96715039 -0.77385575 23.65315635 -0.76171875 21.33984375 C-0.74044922 19.50099609 -0.74044922 19.50099609 -0.71875 17.625 C-0.93491086 14.48517194 -1.21132133 12.84510222 -2.94921875 10.27734375 C-8.10477263 6.26746851 -14.46604857 5.5020359 -19.07421875 10.65234375 Z M-45.32421875 44.8046875 C-48.39907869 47.59127932 -50.70291207 50.80637425 -52.94921875 54.27734375 C-53.31917969 54.83679688 -53.68914062 55.39625 -54.0703125 55.97265625 C-57.10249476 61.2347313 -58.22487381 67.05016133 -59.46728516 72.93530273 C-60.40176057 77.30003562 -61.6600759 81.32885753 -63.28564453 85.48461914 C-64.76094668 89.47032321 -65.18646453 93.63552188 -65.63671875 97.83984375 C-65.74371094 98.76925781 -65.85070312 99.69867188 -65.9609375 100.65625 C-65.94824687 103.49472028 -65.26479296 104.82339513 -63.94921875 107.27734375 C-64.44421875 108.26734375 -64.44421875 108.26734375 -64.94921875 109.27734375 C-64.61921875 110.26734375 -64.28921875 111.25734375 -63.94921875 112.27734375 C-63.74090418 113.61024889 -63.56525644 114.94847626 -63.4140625 116.2890625 C-63.32705078 117.04638672 -63.24003906 117.80371094 -63.15039062 118.58398438 C-63.06337891 119.36966797 -62.97636719 120.15535156 -62.88671875 120.96484375 C-62.79583984 121.76212891 -62.70496094 122.55941406 -62.61132812 123.38085938 C-62.38774598 125.34602875 -62.16810191 127.31164545 -61.94921875 129.27734375 C-59.94938341 128.48616471 -59.94938341 128.48616471 -57.94921875 127.27734375 C-56.89250827 124.10721231 -56.88658164 121.43274932 -56.86132812 118.11962891 C-56.71317872 108.2696427 -54.72379927 100.69656904 -50.54296875 91.81640625 C-49.1952188 88.82360857 -48.17294856 86.53261255 -47.94921875 83.27734375 C-48.58725448 81.93007517 -49.25686896 80.59752328 -49.94921875 79.27734375 C-50.88589515 71.82337152 -50.67133422 65.8121784 -46.140625 59.66796875 C-44.94921875 58.27734375 -44.94921875 58.27734375 -43.94921875 57.27734375 C-41.44921875 57.15234375 -41.44921875 57.15234375 -38.94921875 57.27734375 C-37.94921875 58.27734375 -37.94921875 58.27734375 -37.8515625 60.125 C-37.88411458 62.17578125 -37.91666667 64.2265625 -37.94921875 66.27734375 C-39.92921875 67.26734375 -39.92921875 67.26734375 -41.94921875 68.27734375 C-42.27463247 72.91448931 -42.44911972 75.96852318 -39.94921875 79.96484375 C-37.8594162 83.42607923 -37.50072135 84.40395713 -37.94921875 88.27734375 C-39.15625 90.70703125 -39.15625 90.70703125 -40.76171875 93.15234375 C-44.43935525 98.998398 -47.23554577 104.28334853 -47.94921875 111.27734375 C-48.04847656 111.91800781 -48.14773437 112.55867188 -48.25 113.21875 C-48.5425288 116.24154763 -48.55352966 118.36553896 -46.84375 120.9453125 C-38.66181021 128.80401516 -26.88206171 131.08010174 -15.94921875 131.27734375 C-14.88703125 131.31601563 -13.82484375 131.3546875 -12.73046875 131.39453125 C1.08180022 131.69050844 15.34309047 129.75752147 26.05078125 120.27734375 C28.05389574 116.27111478 27.42828769 112.50382755 26.15625 108.37109375 C25.16507372 105.65323936 24.13684688 102.95856827 23.05078125 100.27734375 C22.39078125 100.27734375 21.73078125 100.27734375 21.05078125 100.27734375 C21.38078125 99.28734375 21.71078125 98.29734375 22.05078125 97.27734375 C21.05484872 95.28270261 21.05484872 95.28270261 19.61328125 93.21484375 C16.61370669 88.17688427 16.51184123 84.01406088 17.05078125 78.27734375 C17.71078125 78.27734375 18.37078125 78.27734375 19.05078125 78.27734375 C20.63069569 75.11751486 20.3949886 72.77678514 20.05078125 69.27734375 C18.87548107 67.41576689 17.54370041 65.76854755 16.1640625 64.0546875 C14.37563179 61.19947357 14.71923623 58.52648491 15.05078125 55.27734375 C21.39944678 55.64361292 21.39944678 55.64361292 24.36328125 58.52734375 C25.92876919 61.07850929 27.06097742 63.46020976 28.05078125 66.27734375 C28.54578125 67.26734375 28.54578125 67.26734375 29.05078125 68.27734375 C28.96267035 70.09356512 28.80775951 71.90691626 28.61328125 73.71484375 C28.30939747 76.60366298 28.05078125 79.37082094 28.05078125 82.27734375 C28.05078125 82.93734375 28.05078125 83.59734375 28.05078125 84.27734375 C27.39078125 84.27734375 26.73078125 84.27734375 26.05078125 84.27734375 C26.48032506 85.67564595 26.91985159 87.07088282 27.36328125 88.46484375 C27.60691406 89.24214844 27.85054688 90.01945312 28.1015625 90.8203125 C28.99322429 93.34971521 28.99322429 93.34971521 30.5546875 95.72265625 C35.19103882 103.63955902 36.05078125 114.23043642 36.05078125 123.27734375 C36.20044565 124.67510233 36.36798612 126.07103085 36.55078125 127.46484375 C36.71578125 128.72296875 36.88078125 129.98109375 37.05078125 131.27734375 C39.57666827 128.91441719 40.93898962 127.61271864 42.05078125 124.27734375 C42.0955611 121.92360301 42.089728 119.56868823 42.05078125 117.21484375 C41.93989214 110.49912197 41.93989214 110.49912197 43.05078125 108.27734375 C43.34345728 105.07607348 43.328806 101.86543721 43.36328125 98.65234375 C43.39228516 97.77449219 43.42128906 96.89664063 43.45117188 95.9921875 C43.50443836 90.47705743 42.71593017 86.84265638 39.99291992 82.05126953 C38.68862566 79.59545141 38.36110227 77.27368482 38.05078125 74.52734375 C36.28455412 62.46827577 32.76687773 52.5631651 22.98828125 44.90234375 C20.10364304 42.87544834 17.41089887 41.39738296 14.05078125 40.27734375 C12.28734375 39.44203125 12.28734375 39.44203125 10.48828125 38.58984375 C7.29119137 37.08744514 7.29119137 37.08744514 4.67578125 37.46484375 C2.85286458 38.17317708 2.85286458 38.17317708 2.05078125 40.27734375 C-3.50243543 44.25014106 -9.25085689 45.37960583 -15.94921875 44.27734375 C-18.22635562 43.39685083 -20.25474565 42.39211476 -22.35546875 41.15234375 C-23.93838685 40.11692415 -23.93838685 40.11692415 -25.94921875 40.27734375 C-25.94921875 39.61734375 -25.94921875 38.95734375 -25.94921875 38.27734375 C-32.69853638 35.66470467 -40.02067169 40.79019701 -45.32421875 44.8046875 Z M-59.94921875 129.27734375 C-58.94921875 131.27734375 -58.94921875 131.27734375 -58.94921875 131.27734375 Z M24.11328125 133.08984375 C19.66288364 135.67600909 14.99032769 136.93954992 10.05078125 138.27734375 C9.0136499 138.61797852 7.97651855 138.95861328 6.90795898 139.30957031 C2.68573285 140.36893511 -0.96890432 140.53379127 -5.2890625 140.47265625 C-6.05601944 140.46982635 -6.82297638 140.46699646 -7.61317444 140.46408081 C-10.03785496 140.4529785 -12.46215184 140.42789342 -14.88671875 140.40234375 C-16.54101025 140.39230105 -18.1953076 140.38317747 -19.84960938 140.375 C-23.88295798 140.35307192 -27.91602355 140.31861218 -31.94921875 140.27734375 C-31.94921875 139.61734375 -31.94921875 138.95734375 -31.94921875 138.27734375 C-33.04234375 138.15359375 -34.13546875 138.02984375 -35.26171875 137.90234375 C-39.4385892 137.19439961 -41.46447439 135.60050666 -44.94921875 133.27734375 C-47.59554162 133.58952015 -47.59554162 133.58952015 -49.94921875 134.27734375 C-50.77568598 148.7252154 -47.2227105 161.94712849 -41.94921875 175.27734375 C-41.5728125 176.24027344 -41.19640625 177.20320313 -40.80859375 178.1953125 C-39.87134839 180.56290619 -38.91448666 182.92107841 -37.94921875 185.27734375 C-37.47548828 186.48390625 -37.47548828 186.48390625 -36.9921875 187.71484375 C-35.88997508 190.42290122 -34.68248478 193.06407377 -33.44921875 195.71484375 C-31.70075794 199.52362534 -30.27433274 203.30200179 -28.94921875 207.27734375 C-27.12420957 210.95670054 -27.12420957 210.95670054 -23.94921875 213.27734375 C-22.57579044 213.34629095 -21.19919773 213.36202083 -19.82421875 213.33984375 C-18.54546875 213.31921875 -17.26671875 213.29859375 -15.94921875 213.27734375 C-15.92392604 206.19320434 -15.90637614 199.10907652 -15.89428711 192.02490234 C-15.88924901 189.61343958 -15.88241841 187.20197989 -15.8737793 184.79052734 C-15.86169088 181.33039596 -15.85598531 177.87030485 -15.8515625 174.41015625 C-15.84640121 173.32678986 -15.84123993 172.24342346 -15.83592224 171.12722778 C-15.83584671 170.12634125 -15.83577118 169.12545471 -15.83569336 168.09423828 C-15.83347275 167.21043488 -15.83125214 166.32663147 -15.82896423 165.41604614 C-15.81047931 163.224576 -15.81047931 163.224576 -16.94921875 161.27734375 C-19.75341607 160.65518753 -19.75341607 160.65518753 -23.07421875 160.27734375 C-30.06470381 159.29943983 -36.2693627 157.55827021 -42.94921875 155.27734375 C-41.95921875 151.81234375 -41.95921875 151.81234375 -40.94921875 148.27734375 C-37.35060098 147.04031889 -35.97308681 147.26780173 -32.36328125 148.7109375 C-27.68325079 150.54524885 -23.31417442 150.87074305 -18.32421875 151.02734375 C-17.45120117 151.06118164 -16.57818359 151.09501953 -15.67871094 151.12988281 C-2.27981188 151.69813306 -2.27981188 151.69813306 10.61328125 148.65234375 C14.12710751 147.24681325 15.53572719 147.06904392 19.05078125 148.27734375 C19.54578125 151.74234375 19.54578125 151.74234375 20.05078125 155.27734375 C18.05609243 155.95973729 16.05420859 156.62104859 14.05078125 157.27734375 C13.31214844 157.53 12.57351562 157.78265625 11.8125 158.04296875 C5.2441471 160.18004051 0.24281136 160.62352283 -6.94921875 161.27734375 C-6.94921875 178.43734375 -6.94921875 195.59734375 -6.94921875 213.27734375 C2.32773258 214.35675778 2.32773258 214.35675778 5.55078125 211.15234375 C7.07935475 208.22257787 8.06232408 205.42805097 9.05078125 202.27734375 C9.70122763 200.99813254 10.36921378 199.72774818 11.05078125 198.46484375 C12.96246636 194.7896115 13.77351679 191.29593913 14.55078125 187.25 C15.18235732 184.75823504 16.39855835 183.21690976 18.05078125 181.27734375 C18.39061144 179.94565147 18.72324559 178.61211312 19.05078125 177.27734375 C19.62828125 176.10171875 20.20578125 174.92609375 20.80078125 173.71484375 C26.9473031 159.93036459 28.85505639 146.23686141 28.05078125 131.27734375 C26.61734137 131.18982586 26.61734137 131.18982586 24.11328125 133.08984375 Z " fill="#141414" transform="translate(235.94921875,14.72265625)"/>
<path d="M0 0 C3.59071491 2.75473915 5.50914348 4.91220272 6.76171875 9.3515625 C7.14664407 13.84771727 7.17623823 18.35698308 7.24023438 22.8671875 C7.26666016 23.78242187 7.29308594 24.69765625 7.3203125 25.640625 C7.33376709 26.47287598 7.34722168 27.30512695 7.36108398 28.16259766 C7.84836107 30.82495376 8.66481367 31.69468489 10.76171875 33.3515625 C12.59443092 34.16284398 12.59443092 34.16284398 14.57421875 34.7265625 C21.22425575 37.08152973 25.22638575 41.32840258 28.76171875 47.3515625 C29.79729855 50.45830191 29.90681387 52.66179887 29.9387207 55.92114258 C29.95797356 57.63355888 29.95797356 57.63355888 29.97761536 59.38056946 C29.98500229 60.61494247 29.99238922 61.84931549 30 63.12109375 C30.00807175 64.38998947 30.01614349 65.65888519 30.02445984 66.9662323 C30.03830033 69.65371349 30.0493169 72.34107203 30.05688477 75.02856445 C30.06794111 78.4618119 30.10233744 81.89440976 30.14205647 85.32742786 C30.17457248 88.61275176 30.17900553 91.89813348 30.1875 95.18359375 C30.20500809 96.41189407 30.22251617 97.6401944 30.24055481 98.90571594 C30.22420322 105.33926342 30.20408674 109.51633551 25.76171875 114.3515625 C23.2939541 116.56622308 21.21970843 118.15468911 18.171875 119.46484375 C15.39642099 121.23000803 15.39642099 121.23000803 14.94140625 124.9140625 C14.81837683 126.39159853 14.71832681 127.87116083 14.63671875 129.3515625 C14.50295856 130.98863496 14.36479586 132.62535255 14.22265625 134.26171875 C14.15272461 135.10492676 14.08279297 135.94813477 14.01074219 136.81689453 C13.61554008 140.83943211 12.93854716 144.80591698 12.26171875 148.7890625 C11.23073009 155.00794556 10.42257888 161.20177701 9.82421875 167.4765625 C9.05506256 175.25827277 8.04247938 182.99284407 6.88671875 190.7265625 C6.66254272 192.34135498 6.66254272 192.34135498 6.43383789 193.98876953 C4.94248636 203.60275612 4.94248636 203.60275612 0.76171875 207.3515625 C-2.20568209 209.12808305 -4.34263718 209.59339553 -7.78515625 209.546875 C-9.05166016 209.53720703 -9.05166016 209.53720703 -10.34375 209.52734375 C-11.21644531 209.51058594 -12.08914062 209.49382812 -12.98828125 209.4765625 C-13.87644531 209.46753906 -14.76460937 209.45851562 -15.6796875 209.44921875 C-17.86616183 209.42570827 -20.05208219 209.39284749 -22.23828125 209.3515625 C-22.23828125 208.6915625 -22.23828125 208.0315625 -22.23828125 207.3515625 C-23.22828125 207.3515625 -24.21828125 207.3515625 -25.23828125 207.3515625 C-28.42047671 204.57972315 -30.98032997 201.25594355 -31.5546875 197.015625 C-31.50934416 195.36726139 -31.42966392 193.71957612 -31.3203125 192.07421875 C-31.14381769 186.21627198 -32.55641964 180.31194301 -33.8671875 174.62109375 C-34.23828125 172.3515625 -34.23828125 172.3515625 -33.23828125 170.3515625 C-33.89828125 170.0215625 -34.55828125 169.6915625 -35.23828125 169.3515625 C-35.32916016 167.63259766 -35.32916016 167.63259766 -35.421875 165.87890625 C-35.50635114 164.34894953 -35.59099552 162.81900209 -35.67578125 161.2890625 C-35.71509766 160.53689453 -35.75441406 159.78472656 -35.79492188 159.00976562 C-35.99059333 150.93742746 -35.99059333 150.93742746 -38.23828125 143.3515625 C-38.67783242 140.09001891 -39.05164596 136.82877534 -39.40039062 133.55664062 C-39.92759562 128.96609958 -40.66915348 124.71086465 -42.23828125 120.3515625 C-45.05465689 118.6515469 -45.05465689 118.6515469 -48.23828125 117.3515625 C-53.4157401 113.01694579 -55.93954294 108.38068711 -56.59472656 101.73730469 C-56.58538086 100.47047852 -56.57603516 99.20365234 -56.56640625 97.8984375 C-56.56512222 97.20453918 -56.5638382 96.51064087 -56.56251526 95.79571533 C-56.55377695 93.56388012 -56.52244603 91.3331423 -56.48828125 89.1015625 C-56.47301056 87.56250527 -56.45828302 86.02344256 -56.4440918 84.484375 C-56.40434573 80.76171533 -56.34233113 77.03982292 -56.27215576 73.31762695 C-56.24201035 71.56799813 -56.22391426 69.81817107 -56.20751953 68.06835938 C-56.10079258 57.23089296 -55.29596363 48.75796018 -48.36328125 39.9765625 C-43.16735565 36.00320763 -38.52617284 34.04936835 -32.23828125 32.3515625 C-32.27308594 31.16820312 -32.30789062 29.98484375 -32.34375 28.765625 C-32.76599855 8.7098799 -32.76599855 8.7098799 -27.76171875 2.52734375 C-19.17922175 -5.5652847 -9.76199853 -6.45519578 0 0 Z M-18.23828125 7.3515625 C-18.23828125 8.0115625 -18.23828125 8.6715625 -18.23828125 9.3515625 C-19.22828125 9.6815625 -20.21828125 10.0115625 -21.23828125 10.3515625 C-23.80280019 14.6707523 -23.82847339 19.4760622 -23.23828125 24.3515625 C-21.89081601 27.80502398 -21.89081601 27.80502398 -20.23828125 30.3515625 C-19.57828125 30.3515625 -18.91828125 30.3515625 -18.23828125 30.3515625 C-17.90828125 31.0115625 -17.57828125 31.6715625 -17.23828125 32.3515625 C-14.17952031 34.09942589 -12.67307638 34.43142283 -9.17578125 33.7890625 C-5.77567024 32.12517839 -4.30649876 30.49218909 -2.23828125 27.3515625 C-0.5062432 22.15544834 -0.6044112 17.21795765 -2.36328125 12.0390625 C-4.63693885 8.78015327 -6.71856152 7.18181676 -10.23828125 5.3515625 C-14.06949456 4.8169746 -14.93456951 5.149088 -18.23828125 7.3515625 Z M-36.23828125 44.3515625 C-37.59953125 45.063125 -37.59953125 45.063125 -38.98828125 45.7890625 C-41.94877797 47.844963 -43.3595024 49.20248954 -45.23828125 52.3515625 C-45.8007214 56.38043135 -45.702869 60.37273201 -45.62890625 64.43359375 C-45.62324646 65.60290939 -45.61758667 66.77222504 -45.61175537 67.97697449 C-45.58939061 71.70642275 -45.53919125 75.4349053 -45.48828125 79.1640625 C-45.4682165 81.69464757 -45.4499657 84.22524772 -45.43359375 86.75585938 C-45.38952534 92.95475578 -45.32261096 99.15309014 -45.23828125 105.3515625 C-43.91828125 106.0115625 -42.59828125 106.6715625 -41.23828125 107.3515625 C-35.48562432 89.36135097 -35.48562432 89.36135097 -37.5625 71.42578125 C-38.72443094 67.85939208 -38.01408696 64.97198913 -37.23828125 61.3515625 C-36.23828125 60.3515625 -36.23828125 60.3515625 -33.67578125 60.2890625 C-32.46921875 60.32 -32.46921875 60.32 -31.23828125 60.3515625 C-28.09499316 71.85718306 -26.53295962 80.80325025 -29.11962891 92.55566406 C-30.0679188 96.91454628 -30.28622769 100.90319823 -30.23828125 105.3515625 C-30.39949463 105.96547852 -30.56070801 106.57939453 -30.72680664 107.21191406 C-32.72329593 115.56381485 -30.99382333 125.02739696 -29.86328125 133.4140625 C-29.73695312 134.41244141 -29.610625 135.41082031 -29.48046875 136.43945312 C-28.84106133 141.36608727 -28.09519127 146.24726406 -27.171875 151.12890625 C-26.37204967 155.39732273 -25.90523593 159.5163337 -25.67578125 163.8515625 C-25.48811228 167.31386345 -25.33537069 170.06029417 -24.23828125 173.3515625 C-23.57828125 173.3515625 -22.91828125 173.3515625 -22.23828125 173.3515625 C-22.23828125 174.0115625 -22.23828125 174.6715625 -22.23828125 175.3515625 C-22.89828125 175.6815625 -23.55828125 176.0115625 -24.23828125 176.3515625 C-23.76454626 179.47741127 -23.28337174 182.60206966 -22.80078125 185.7265625 C-22.66607422 186.61601562 -22.53136719 187.50546875 -22.39257812 188.421875 C-22.26044922 189.27265625 -22.12832031 190.1234375 -21.9921875 191 C-21.87174072 191.78552246 -21.75129395 192.57104492 -21.62719727 193.38037109 C-21.31589887 195.41767934 -21.31589887 195.41767934 -20.23828125 197.3515625 C-18.2136487 198.00369542 -18.2136487 198.00369542 -16.23828125 198.3515625 C-16.19197066 189.27652526 -16.15641858 180.2015286 -16.13465691 171.12639904 C-16.12421317 166.91259275 -16.11004326 162.69886723 -16.08740234 158.48510742 C-16.06569492 154.41970843 -16.05371706 150.35438718 -16.04852676 146.28893471 C-16.04482722 144.73676644 -16.03760306 143.1846025 -16.02682114 141.63246727 C-16.01233399 139.46085744 -16.01030212 137.28957019 -16.01123047 135.11791992 C-16.00456863 133.26259895 -16.00456863 133.26259895 -15.99777222 131.36979675 C-16.00609452 128.17241665 -16.00609452 128.17241665 -18.23828125 125.3515625 C-10.48828125 124.3515625 -10.48828125 124.3515625 -8.23828125 124.3515625 C-8.23828125 148.4415625 -8.23828125 172.5315625 -8.23828125 197.3515625 C-7.24828125 197.3515625 -6.25828125 197.3515625 -5.23828125 197.3515625 C-2.20674806 189.70682662 -1.57595865 182.5373285 -1.23828125 174.3515625 C-0.90828125 174.3515625 -0.57828125 174.3515625 -0.23828125 174.3515625 C-0.15787598 173.71766602 -0.0774707 173.08376953 0.00537109 172.43066406 C2.65888463 151.58865903 2.65888463 151.58865903 3.88671875 144.7890625 C4.84590337 139.3668949 5.2092653 133.95355989 5.5390625 128.4609375 C5.76171875 125.3515625 5.76171875 125.3515625 6.38671875 121.7890625 C6.86591424 117.39643719 6.4742785 113.25997819 6.078125 108.8671875 C5.76841933 105.42601339 5.54071182 101.98720673 5.32421875 98.5390625 C5.02064371 94.01073481 4.52852728 89.5640229 3.8762207 85.07714844 C2.9454002 78.60279145 2.70350066 73.64056222 4.76171875 67.3515625 C4.92584247 64.98544555 4.86065837 62.72611334 4.76171875 60.3515625 C7.0946665 60.30914527 9.42874442 60.31063313 11.76171875 60.3515625 C13.28556653 61.87541028 12.93080776 63.23061622 12.94921875 65.3515625 C12.93311696 68.73830574 12.51680579 71.64922347 11.63671875 74.9140625 C10.44185776 79.66031589 11.34579391 82.71047553 12.76171875 87.3515625 C12.76171875 88.6715625 12.76171875 89.9915625 12.76171875 91.3515625 C12.90609375 92.1765625 13.05046875 93.0015625 13.19921875 93.8515625 C14.02523554 98.99122251 14.36714516 104.1633395 14.76171875 109.3515625 C15.75171875 109.0215625 16.74171875 108.6915625 17.76171875 108.3515625 C18.49495671 106.33647892 18.49495671 106.33647892 18.76171875 104.3515625 C19.42171875 104.3515625 20.08171875 104.3515625 20.76171875 104.3515625 C20.8125126 97.48310511 20.84749181 90.61469635 20.87158203 83.74609375 C20.88162706 81.41046336 20.89526552 79.0748455 20.91259766 76.73925781 C20.93691152 73.37822369 20.94821702 70.01735616 20.95703125 66.65625 C20.96735382 65.61540253 20.97767639 64.57455505 20.98831177 63.50216675 C20.98924802 57.4248081 20.89748178 52.22662811 17.13671875 47.1640625 C13.91798337 44.70765919 10.583088 43.59590046 6.76171875 42.3515625 C5.66859375 41.9596875 4.57546875 41.5678125 3.44921875 41.1640625 C0.75105215 40.20686775 0.75105215 40.20686775 -2.23828125 40.3515625 C-2.23828125 41.0115625 -2.23828125 41.6715625 -2.23828125 42.3515625 C-4.46602095 42.57463792 -6.69559489 42.77944428 -8.92578125 42.9765625 C-10.16714844 43.09257813 -11.40851563 43.20859375 -12.6875 43.328125 C-16.2014833 43.35131961 -18.087174 42.7482695 -21.23828125 41.3515625 C-22.22828125 41.8465625 -22.22828125 41.8465625 -23.23828125 42.3515625 C-23.23828125 41.6915625 -23.23828125 41.0315625 -23.23828125 40.3515625 C-28.38643407 39.7080434 -31.89042372 41.93019469 -36.23828125 44.3515625 Z " fill="#131313" transform="translate(84.23828125,30.6484375)"/>
<path d="M0 0 C3.26460973 1.80412643 4.88929795 2.83394693 7 6 C6.34 6 5.68 6 5 6 C5 6.99 5 7.98 5 9 C6.13179687 8.96519531 7.26359375 8.93039063 8.4296875 8.89453125 C9.91144353 8.86639664 11.39321556 8.83909613 12.875 8.8125 C13.99455078 8.77479492 13.99455078 8.77479492 15.13671875 8.73632812 C17.3046875 8.70703125 17.3046875 8.70703125 21 9 C23 12 23 12 22.75 14.5625 C22 17 22 17 20 19 C17.44132526 19.4657363 14.95312092 19.83484248 12.375 20.125 C11.66859375 20.21136719 10.9621875 20.29773438 10.234375 20.38671875 C8.49049859 20.59881183 6.7453516 20.80040991 5 21 C4.67 22.65 4.34 24.3 4 26 C1.75 26.75 1.75 26.75 -1 27 C-3.3125 25.1875 -3.3125 25.1875 -5 23 C-5 22.34 -5 21.68 -5 21 C-5.66 20.67 -6.32 20.34 -7 20 C-7.33333333 18 -7.66666667 16 -8 14 C-8.66 13.67 -9.32 13.34 -10 13 C-9.360625 12.0925 -8.72125 11.185 -8.0625 10.25 C-5.92659391 7.31515194 -5.92659391 7.31515194 -5.5625 4.8125 C-5 3 -5 3 -2.4375 1.25 C-1.2309375 0.63125 -1.2309375 0.63125 0 0 Z " fill="#0D0D0D" transform="translate(136,72)"/>
<path d="M0 0 C2.3125 0.75 2.3125 0.75 3.3125 1.75 C3.35330783 3.74958364 3.35504356 5.75045254 3.3125 7.75 C4.43269531 7.70359375 5.55289063 7.6571875 6.70703125 7.609375 C8.17966085 7.57185577 9.65231927 7.53545577 11.125 7.5 C11.86298828 7.46648437 12.60097656 7.43296875 13.36132812 7.3984375 C18.8169697 7.29969286 18.8169697 7.29969286 21.32421875 9.578125 C22.3125 11.75 22.3125 11.75 22.3125 14.75 C21.6525 14.75 20.9925 14.75 20.3125 14.75 C19.9825 15.74 19.6525 16.73 19.3125 17.75 C14.0325 17.75 8.7525 17.75 3.3125 17.75 C3.3125 19.73 3.3125 21.71 3.3125 23.75 C1.3125 25.625 1.3125 25.625 -0.6875 26.75 C-6.50364614 23.40880966 -6.50364614 23.40880966 -7.4375 20.0625 C-7.52 19.299375 -7.6025 18.53625 -7.6875 17.75 C-8.3475 17.42 -9.0075 17.09 -9.6875 16.75 C-10.25612745 7.08333333 -10.25612745 7.08333333 -6.6875 2.75 C-4.26504399 0.32754399 -3.45560537 -0.32145166 0 0 Z " fill="#161616" transform="translate(132.6875,108.25)"/>
<path d="M0 0 C0.556875 0.268125 1.11375 0.53625 1.6875 0.8125 C2.3475 3.1225 3.0075 5.4325 3.6875 7.8125 C4.74710938 7.86148438 5.80671875 7.91046875 6.8984375 7.9609375 C8.28648497 8.03596709 9.67450451 8.11151485 11.0625 8.1875 C11.76117188 8.2184375 12.45984375 8.249375 13.1796875 8.28125 C18.4609375 8.5859375 18.4609375 8.5859375 20.6875 10.8125 C20.11931818 16.38068182 20.11931818 16.38068182 18.6875 17.8125 C15.65126745 18.09799649 12.61492215 18.26118814 9.5703125 18.43359375 C6.49491166 18.62200152 6.49491166 18.62200152 3.6875 20.8125 C2.48299696 23.36433404 2.48299696 23.36433404 1.6875 25.8125 C-1 26.1875 -1 26.1875 -4.3125 25.8125 C-9.53620716 21.30111654 -10.42870104 16.48716083 -11.3125 9.8125 C-10.6525 9.8125 -9.9925 9.8125 -9.3125 9.8125 C-9.085625 9.090625 -8.85875 8.36875 -8.625 7.625 C-6.86524257 3.85409122 -4.58887442 -0.3720709 0 0 Z " fill="#151515" transform="translate(138.3125,140.1875)"/>
<path d="M0 0 C15.84 0.495 15.84 0.495 32 1 C27.5 4.375 27.5 4.375 23.015625 4.29296875 C22.08105469 4.28330078 21.14648438 4.27363281 20.18359375 4.26367188 C19.21550781 4.23853516 18.24742187 4.21339844 17.25 4.1875 C16.26644531 4.17396484 15.28289062 4.16042969 14.26953125 4.14648438 C11.84579585 4.11118726 9.42317855 4.06188054 7 4 C7 3.34 7 2.68 7 2 C4.69 1.67 2.38 1.34 0 1 C0 0.67 0 0.34 0 0 Z " fill="#797979" transform="translate(208,236)"/>
<path d="M0 0 C4.875 0.875 4.875 0.875 6 2 C6 3.98 6 5.96 6 8 C10.29 8 14.58 8 19 8 C19 8.66 19 9.32 19 10 C14.38 10 9.76 10 5 10 C3.768606 7.53721199 3.92840804 5.7204945 4 3 C2.68 2.67 1.36 2.34 0 2 C0 1.34 0 0.68 0 0 Z " fill="#484848" transform="translate(130,108)"/>
<path d="M0 0 C4.62 0 9.24 0 14 0 C14 0.66 14 1.32 14 2 C9.32798795 3.20568053 4.78503708 3.09382426 0 3 C0 2.01 0 1.02 0 0 Z " fill="#575757" transform="translate(140,89)"/>
<path d="M0 0 C2.31 0 4.62 0 7 0 C7 7.26 7 14.52 7 22 C6.67 22 6.34 22 6 22 C5.67 15.4 5.34 8.8 5 2 C3.35 2 1.7 2 0 2 C0 1.34 0 0.68 0 0 Z " fill="#858585" transform="translate(214,174)"/>
<path d="M0 0 C0.33 0 0.66 0 1 0 C1.33 1.65 1.66 3.3 2 5 C5.3 5.33 8.6 5.66 12 6 C12 6.66 12 7.32 12 8 C8.04 8 4.08 8 0 8 C-1.09658936 4.71023192 -0.79953138 3.28696233 0 0 Z " fill="#202020" transform="translate(140,143)"/>
<path d="M0 0 C7.50769231 0.61538462 7.50769231 0.61538462 10 2.5625 C10.33 3.036875 10.66 3.51125 11 4 C9.02 4 7.04 4 5 4 C5 3.34 5 2.68 5 2 C3.35 1.67 1.7 1.34 0 1 C0 0.67 0 0.34 0 0 Z " fill="#3C3C3C" transform="translate(199,151)"/>
<path d="M0 0 C-2.22825644 2.22825644 -3.65761628 2.69239369 -6.625 3.625 C-7.44226563 3.88539062 -8.25953125 4.14578125 -9.1015625 4.4140625 C-9.72804687 4.60742188 -10.35453125 4.80078125 -11 5 C-11 4.34 -11 3.68 -11 3 C-7.28026121 0.15549386 -4.62609198 -0.3227506 0 0 Z " fill="#474747" transform="translate(201,45)"/>
<path d="M0 0 C-0.28875 0.680625 -0.5775 1.36125 -0.875 2.0625 C-2.12597355 5.32893093 -3.07447955 8.62846123 -4 12 C-4.33 12 -4.66 12 -5 12 C-5.36666667 4.66666667 -5.36666667 4.66666667 -3.625 1.5 C-2 0 -2 0 0 0 Z " fill="#494949" transform="translate(128,112)"/>
<path d="M0 0 C0 0.66 0 1.32 0 2 C-3.63 1.67 -7.26 1.34 -11 1 C-11 0.67 -11 0.34 -11 0 C-6.98195309 -0.84098656 -3.98196457 -1.05404945 0 0 Z " fill="#585858" transform="translate(224,146)"/>
<path d="M0 0 C0.99 0.33 1.98 0.66 3 1 C3.33 2.98 3.66 4.96 4 7 C2.68 7.99 1.36 8.98 0 10 C0.37125 9.0925 0.7425 8.185 1.125 7.25 C2.30359299 4.11902985 2.30359299 4.11902985 1.125 1.625 C0.75375 1.08875 0.3825 0.5525 0 0 Z " fill="#5E5E5E" transform="translate(155,81)"/>
<path d="M0 0 C0.33 0 0.66 0 1 0 C1 1.98 1 3.96 1 6 C0.67 6 0.34 6 0 6 C0 4.02 0 2.04 0 0 Z " fill="#2A2A2A" transform="translate(245,29)"/>
<path d="" fill="#8D8D8D" transform="translate(0,0)"/>
<path d="" fill="#2A2A2A" transform="translate(0,0)"/>
<path d="M0 0 C2 1 2 1 2 1 Z " fill="#000000" transform="translate(136,167)"/>
<path d="" fill="#3F3F3F" transform="translate(0,0)"/>
<path d="M0 0 C2 1 2 1 2 1 Z " fill="#000000" transform="translate(223,157)"/>
<path d="" fill="#D4D4D4" transform="translate(0,0)"/>
<path d="" fill="#AAAAAA" transform="translate(0,0)"/>
<path d="" fill="#AAAAAA" transform="translate(0,0)"/>
<path d="" fill="#AAAAAA" transform="translate(0,0)"/>
<path d="" fill="#AAAAAA" transform="translate(0,0)"/>
<path d="" fill="#000000" transform="translate(0,0)"/>
<path d="" fill="#000000" transform="translate(0,0)"/>
<path d="" fill="#AAAAAA" transform="translate(0,0)"/>
<path d="" fill="#AAAAAA" transform="translate(0,0)"/>
<path d="" fill="#AAAAAA" transform="translate(0,0)"/>
<path d="" fill="#AAAAAA" transform="translate(0,0)"/>
<path d="" fill="#000000" transform="translate(0,0)"/>
<path d="" fill="#000000" transform="translate(0,0)"/>
<path d="" fill="#AAAAAA" transform="translate(0,0)"/>
</svg>
