<?xml version="1.0" encoding="UTF-8"?>
<svg version="1.1" xmlns="http://www.w3.org/2000/svg" width="260" height="206">
<path d="M0 0 C4.31392226 0.4793247 6.16569547 1.7457985 9 5 C9.86625 4.34 10.7325 3.68 11.625 3 C17.15440449 -0.21503519 23.81906428 0.3105571 30 1 C30.66 1.66 31.32 2.32 32 3 C31.91609507 6.77572168 31.22936006 8.68462991 29 11.75 C25.16298868 14.62775849 21.77462649 15.70682118 17 16 C13.4375 15.125 13.4375 15.125 11 14 C11.66 14.66 12.32 15.32 13 16 C14.71109646 15.96255176 16.42089708 15.84651796 18.125 15.6875 C23.864687 15.56650528 26.4906048 17.16670862 30.63671875 20.98046875 C32.32650903 23.48368243 32.27096872 25.03979455 32 28 C32.66 28.33 33.32 28.66 34 29 C32.62271723 40.56192641 30.46252736 53.09663908 21 61 C15.94245578 62.65160428 11.11452292 62.27863073 6 61 C5.01 61.495 5.01 61.495 4 62 C0.03973057 62.38079514 -2.43822141 62.26369199 -6.0625 60.5625 C-13.68319985 53.91465545 -17.82032318 44.67452671 -19.34765625 34.73828125 C-19.56385604 29.95368595 -18.51698821 25.08903204 -16 21 C-13.04186408 17.91135808 -11.53402939 17.05533983 -7.23046875 16.609375 C-5.88225415 16.63568163 -4.53430482 16.68298196 -3.1875 16.75 C-2.49462891 16.76804687 -1.80175781 16.78609375 -1.08789062 16.8046875 C0.60867664 16.85148936 2.30452476 16.92322376 4 17 C3.50751237 13.28014662 2.9868482 10.49108371 0.875 7.375 C-1 4 -1 4 -0.75 1.5625 C-0.5025 1.046875 -0.255 0.53125 0 0 Z M18 7 C17.34 7.66 16.68 8.32 16 9 C18.31 9 20.62 9 23 9 C22.67 8.34 22.34 7.68 22 7 C20.68 7 19.36 7 18 7 Z M-11 24 C-13.65606858 28.64812001 -13.60150626 33.27346432 -12.46484375 38.42578125 C-10.74565868 44.61672641 -8.69099174 50.30900826 -4.0625 54.9375 C-1.51752139 56.24854959 0.17234089 56.29764833 3 56 C3.99 55.505 3.99 55.505 5 55 C6.99551782 54.64080679 8.99548879 54.30503431 11 54 C11.33 54.66 11.66 55.32 12 56 C14.79712143 56.20794918 14.79712143 56.20794918 18 55 C24.72839869 47.75527335 27.3050208 38.93034769 27.3984375 29.26171875 C26.89151024 26.38416106 26.07577342 25.05311214 24 23 C20.96736467 21.86527221 19.49469546 21.83060428 16.421875 22.8828125 C15.54015625 23.29273437 14.6584375 23.70265625 13.75 24.125 C8.62769247 26.14496784 5.99883812 26.0073187 1 23.8828125 C0.34 23.59148437 -0.32 23.30015625 -1 23 C-6.31782202 21.68125901 -6.31782202 21.68125901 -11 24 Z " fill="#020202" transform="translate(198,43)"/>
<path d="M0 0 C2.78281121 1.2717148 4.89699467 2.9742801 7.1796875 4.99609375 C8.2315625 5.39828125 8.2315625 5.39828125 9.3046875 5.80859375 C12.43753706 7.7927318 13.38664034 10.52868317 14.1796875 13.99609375 C15.08975751 25.63098874 15.08975751 25.63098874 12.1796875 29.99609375 C10.0546875 30.68359375 10.0546875 30.68359375 8.1796875 30.99609375 C8.7984375 31.14046875 9.4171875 31.28484375 10.0546875 31.43359375 C12.1796875 31.99609375 12.1796875 31.99609375 14.1796875 32.99609375 C13.78586613 38.90341431 13.43664521 40.86076341 9.1796875 44.99609375 C8.53336355 46.62583302 7.93405039 48.27454246 7.3671875 49.93359375 C5.43864061 55.06125961 3.14373678 57.67664715 -1.8203125 59.99609375 C-6.67137037 61.51204933 -10.12851332 60.87281342 -14.8203125 58.99609375 C-17.7578125 56.49609375 -17.7578125 56.49609375 -19.8203125 53.99609375 C-19.8203125 53.33609375 -19.8203125 52.67609375 -19.8203125 51.99609375 C-20.8103125 51.66609375 -21.8003125 51.33609375 -22.8203125 50.99609375 C-22.913125 49.69671875 -22.913125 49.69671875 -23.0078125 48.37109375 C-23.59482275 44.78558255 -23.59482275 44.78558255 -26.4453125 41.99609375 C-28.8203125 38.99609375 -28.8203125 38.99609375 -28.7578125 35.74609375 C-27.8203125 32.99609375 -27.8203125 32.99609375 -25.8203125 30.99609375 C-26.4803125 30.66609375 -27.1403125 30.33609375 -27.8203125 29.99609375 C-31.06464797 23.67408389 -29.53013315 17.10838427 -28.0078125 10.43359375 C-26.6288631 7.60311867 -25.68798125 7.10615907 -22.8203125 5.99609375 C-22.4903125 5.33609375 -22.1603125 4.67609375 -21.8203125 3.99609375 C-19.45703125 2.99609375 -19.45703125 2.99609375 -16.5078125 1.99609375 C-12.51160853 0.65124344 -12.51160853 0.65124344 -8.7421875 -1.19921875 C-5.50637021 -2.55405282 -3.14882179 -1.16145066 0 0 Z M-21.8203125 12.99609375 C-22.96384166 15.28315206 -22.92365689 16.58874137 -22.8828125 19.12109375 C-22.8621875 20.39984375 -22.8415625 21.67859375 -22.8203125 22.99609375 C-22.4903125 22.33609375 -22.1603125 21.67609375 -21.8203125 20.99609375 C-21.01335937 21.23199219 -20.20640625 21.46789062 -19.375 21.7109375 C-14.53255365 22.09939748 -11.30336009 20.51971517 -6.9453125 18.55859375 C-5.7696875 18.05102539 -5.7696875 18.05102539 -4.5703125 17.53320312 C-2.64779228 16.70089254 -0.73320778 15.85029309 1.1796875 14.99609375 C3.51302083 17.32942708 5.84635417 19.66276042 8.1796875 21.99609375 C8.50613164 17.833931 8.58619732 15.63295913 6.3046875 12.05859375 C4.43405051 9.76393529 4.43405051 9.76393529 2.1796875 9.99609375 C1.9734375 9.35671875 1.7671875 8.71734375 1.5546875 8.05859375 C0.31106096 5.7485053 0.31106096 5.7485053 -2.4453125 5.05859375 C-9.65641973 4.92505473 -16.16700757 8.72439451 -21.8203125 12.99609375 Z M-8.0078125 24.37109375 C-12.57996741 26.16041823 -17.06616262 27.77991587 -21.8203125 28.99609375 C-22.55840122 35.78650995 -20.05551212 40.14332353 -16.8203125 45.99609375 C-16.47355469 46.71023437 -16.12679687 47.424375 -15.76953125 48.16015625 C-14.02309195 51.53804296 -11.93232002 53.56839855 -8.3828125 54.93359375 C-4.86609502 55.01936735 -3.53919885 54.22697486 -0.8203125 51.99609375 C1.97982069 47.75589207 3.66318424 43.84890419 5.1796875 38.99609375 C5.7365625 37.79984375 6.2934375 36.60359375 6.8671875 35.37109375 C8.31182937 32.25983813 8.31182937 32.25983813 8.1796875 29.80859375 C6.69732969 27.12182022 4.6869904 25.70839817 2.1796875 23.99609375 C1.5196875 23.99609375 0.8596875 23.99609375 0.1796875 23.99609375 C0.1796875 23.33609375 0.1796875 22.67609375 0.1796875 21.99609375 C-2.83597742 21.99609375 -5.2160097 23.25951289 -8.0078125 24.37109375 Z M7.1796875 35.99609375 C8.1796875 37.99609375 8.1796875 37.99609375 8.1796875 37.99609375 Z " fill="#020202" transform="translate(139.8203125,18.00390625)"/>
<path d="M0 0 C0.495 1.98 0.495 1.98 1 4 C-1.60295276 5.31495542 -4.20728033 6.62704986 -6.8125 7.9375 C-7.91948242 8.49727539 -7.91948242 8.49727539 -9.04882812 9.06835938 C-9.76103516 9.42607422 -10.47324219 9.78378906 -11.20703125 10.15234375 C-12.18893433 10.6472229 -12.18893433 10.6472229 -13.19067383 11.15209961 C-15 12 -15 12 -18 13 C-19.88731592 21.26797 -20.61071906 29.42233435 -21.12304688 37.87304688 C-21.19458984 38.84951172 -21.26613281 39.82597656 -21.33984375 40.83203125 C-21.39519287 41.70577393 -21.45054199 42.5795166 -21.50756836 43.47973633 C-22.09171893 46.4694172 -23.31500789 48.48534316 -25 51 C-25.85118408 50.93941406 -26.70236816 50.87882812 -27.5793457 50.81640625 C-30.79040292 50.58970749 -34.0016798 50.366495 -37.21313477 50.14550781 C-38.5931124 50.04986103 -39.97299934 49.95289487 -41.3527832 49.85449219 C-49.57643052 49.26900912 -57.75195737 48.84365958 -66 49 C-66.26932521 53.65052872 -66.26932521 53.65052872 -65 58 C-63.17200763 58.52828812 -63.17200763 58.52828812 -60.93920898 58.77783203 C-59.64798378 58.95779221 -59.64798378 58.95779221 -58.33067322 59.14138794 C-56.92755638 59.3227681 -56.92755638 59.3227681 -55.49609375 59.5078125 C-54.54307877 59.63815887 -53.59006378 59.76850525 -52.60816956 59.90280151 C-49.55236537 60.31874636 -46.49503472 60.72199292 -43.4375 61.125 C-41.37033016 61.40411563 -39.30327106 61.68405274 -37.23632812 61.96484375 C-32.15878986 62.65278154 -27.07984709 63.32933274 -22 64 C-21.566875 63.175 -21.13375 62.35 -20.6875 61.5 C-20.130625 60.675 -19.57375 59.85 -19 59 C-18.01 59 -17.02 59 -16 59 C-16 58.34 -16 57.68 -16 57 C-14.35 57 -12.7 57 -11 57 C-9.93667138 60.18998586 -9.81382786 60.97495487 -11 64 C-14.1501769 67.6765088 -17.72988997 70.71639404 -22.63427734 71.32910156 C-25.54749109 71.11896126 -28.32008721 70.68038495 -31.1875 70.125 C-33.30585713 69.77913569 -35.42435021 69.43410318 -37.54296875 69.08984375 C-39.14664307 68.80923096 -39.14664307 68.80923096 -40.78271484 68.52294922 C-43.91100236 68.014466 -47.02348916 67.64006783 -50.17578125 67.31640625 C-51.64591675 67.15664307 -51.64591675 67.15664307 -53.14575195 66.99365234 C-54.99301276 66.79551146 -56.84184435 66.61130877 -58.69213867 66.44384766 C-65.19531988 65.66299417 -69.1424458 63.35297237 -74 59 C-73.46068625 53.71472524 -72.46710903 49.66009483 -70 45 C-67.875 43.6875 -67.875 43.6875 -66 43 C-65.67 42.34 -65.34 41.68 -65 41 C-60.89573241 41.31118329 -56.79160594 41.62419251 -52.6875 41.9375 C-51.53958984 42.02451172 -50.39167969 42.11152344 -49.20898438 42.20117188 C-42.1333813 42.74236531 -35.06499561 43.33426864 -28 44 C-28.020625 42.72125 -28.04125 41.4425 -28.0625 40.125 C-28.07413783 32.07162065 -27.49016277 24.03516825 -27 16 C-26.34 16 -25.68 16 -25 16 C-24.9175 15.2575 -24.835 14.515 -24.75 13.75 C-23.8080556 10.29620385 -22.80148699 9.22682299 -20 7 C-17.96382226 5.89925441 -15.91016378 4.89105592 -13.8046875 3.9296875 C-11.82018034 3.02336415 -11.82018034 3.02336415 -10 1 C-6.25145434 -0.92492885 -4.04962316 -1.15703519 0 0 Z " fill="#020202" transform="translate(115,79)"/>
<path d="M0 0 C5.96766941 0.30344082 9.14220848 1.32966863 14 5 C14.86625 5.515625 15.7325 6.03125 16.625 6.5625 C22.75824176 10.27472527 22.75824176 10.27472527 24 14 C24.33 14.66 24.66 15.32 25 16 C25.30869938 18.29809536 25.50883648 20.59720129 25.71875 22.90625 C25.892155 25.05443933 25.892155 25.05443933 27 27 C26.72057545 28.67654729 26.39171753 30.34608154 26 32 C26.66 32 27.32 32 28 32 C28 36.29 28 40.58 28 45 C29.9284375 44.855625 31.856875 44.71125 33.84375 44.5625 C36.39582213 44.37484764 38.9479061 44.1873561 41.5 44 C43.40265625 43.85691406 43.40265625 43.85691406 45.34375 43.7109375 C62.55908128 42.45565293 62.55908128 42.45565293 66.8125 44.0625 C70.5479002 47.37099732 71.71115489 51.23082373 72.5 56.0625 C71.81344785 60.09599388 70.26792323 62.62277278 67 65 C63.76998868 66.07092896 60.35482186 66.46356657 57 67 C56.33564941 67.10673035 55.67129883 67.21346069 54.98681641 67.32342529 C50.23485024 68.07914274 45.47675617 68.78068348 40.7121582 69.4519043 C39.01901016 69.69373581 37.32693296 69.94317839 35.63598633 70.19995117 C33.16965589 70.57395462 30.70096127 70.9242342 28.23046875 71.26953125 C27.47831589 71.38810989 26.72616302 71.50668854 25.95121765 71.62886047 C22.44199317 72.09408032 20.3292377 72.1548785 17.09106445 70.6315918 C13.25557859 67.63888286 11.79599526 65.54985465 10 61 C9.34 60.67 8.68 60.34 8 60 C8.66 60 9.32 60 10 60 C10 59.34 10 58.68 10 58 C12.1875 57.5625 12.1875 57.5625 15 58 C16.3684082 59.57397461 16.3684082 59.57397461 17.67578125 61.52734375 C18.11446533 62.1730835 18.55314941 62.81882324 19.00512695 63.48413086 C19.33343506 63.98436768 19.66174316 64.48460449 20 65 C25.28451616 64.33146076 30.56805288 63.65577736 35.85083008 62.97363281 C37.64582943 62.74285411 39.4410754 62.5139849 41.23657227 62.28710938 C43.82636588 61.95952383 46.41517703 61.62494346 49.00390625 61.2890625 C49.79898087 61.19001617 50.59405548 61.09096985 51.41322327 60.98892212 C56.1103446 60.37138333 60.47708737 59.41554799 65 58 C64.81535634 53.65815798 64.81535634 53.65815798 63 50 C61.40452578 49.98319361 59.80821533 50.03750283 58.21484375 50.12109375 C56.71630859 50.19372437 56.71630859 50.19372437 55.1875 50.26782227 C54.115 50.32381592 53.0425 50.37980957 51.9375 50.4375 C42.27755896 50.89732586 32.67004605 51.1279859 23 51 C20.27815913 43.12527234 19.9990683 34.86126649 19.3203125 26.60742188 C19.206875 25.43373047 19.0934375 24.26003906 18.9765625 23.05078125 C18.88455566 21.98512939 18.79254883 20.91947754 18.69775391 19.8215332 C17.8640167 16.4501193 16.70580161 15.12616987 14 13 C13.34 13 12.68 13 12 13 C12 12.34 12 11.68 12 11 C10.2984375 10.566875 10.2984375 10.566875 8.5625 10.125 C7.386875 9.75375 6.21125 9.3825 5 9 C4.67 8.34 4.34 7.68 4 7 C1.97536745 6.34786708 1.97536745 6.34786708 0 6 C-0.38218767 4.34385343 -0.71395102 2.67542976 -1 1 C-0.67 0.67 -0.34 0.34 0 0 Z " fill="#020202" transform="translate(152,78)"/>
<path d="M0 0 C1.92171842 2.41764576 3 3.88467214 3 7 C4.3921875 6.2575 4.3921875 6.2575 5.8125 5.5 C9 4 9 4 12 4 C12.495 6.97 12.495 6.97 13 10 C11.35 10.66 9.7 11.32 8 12 C8.495 13.0209375 8.495 13.0209375 9 14.0625 C10.24207353 17.71109098 10.54727757 20.16905699 10 24 C6.83902968 27.5464545 4.95414309 28.69869165 0.4375 30.125 C-3 30 -3 30 -5.8125 27.6875 C-6.534375 26.800625 -7.25625 25.91375 -8 25 C-8.66 24.34 -9.32 23.68 -10 23 C-12.74676963 24.02022872 -15.17374222 25.10505344 -17.6875 26.625 C-20 28 -20 28 -22 28 C-23.1490712 29.9254644 -23.1490712 29.9254644 -23 32 C-22.34 32.99 -21.68 33.98 -21 35 C-20.65002894 38.28972793 -20.63223253 40.30317742 -22.1875 43.25 C-25.22648598 46.18419336 -27.96994443 46.89699444 -32.125 47.3125 C-35 47 -35 47 -36.75 45.8125 C-38.24270809 43.64807327 -39.13051518 41.47468755 -40 39 C-40.99 39.66 -41.98 40.32 -43 41 C-45.6875 41.125 -45.6875 41.125 -48 41 C-48.75 39.25 -48.75 39.25 -49 37 C-47.0625 34.75 -47.0625 34.75 -45 33 C-45.495 31.948125 -45.495 31.948125 -46 30.875 C-47.15332969 27.55917715 -47.59173376 25.47643586 -47 22 C-44.0625 19.75 -44.0625 19.75 -41 18 C-40.67 17.34 -40.34 16.68 -40 16 C-34.72261735 16.17591275 -34.72261735 16.17591275 -32 17 C-29.625 20 -29.625 20 -28 23 C-27.34 23.33 -26.68 23.66 -26 24 C-26 23.34 -26 22.68 -26 22 C-25.236875 21.71125 -24.47375 21.4225 -23.6875 21.125 C-20.84970692 20.03730987 -20.84970692 20.03730987 -18 18 C-16.34416775 17.30686092 -14.67889021 16.63525576 -13 16 C-13.7734375 14.700625 -13.7734375 14.700625 -14.5625 13.375 C-16.18478466 9.56615776 -16.32621048 7.89021741 -15 4 C-13 2.75 -13 2.75 -11 2 C-10.67 1.34 -10.34 0.68 -10 0 C-6.17853346 -1.27382218 -3.89335307 -0.97333827 0 0 Z M-8.125 7 C-8.74375 7.66 -9.3625 8.32 -10 9 C-9.0653305 10.58500588 -8.12713737 12.16793416 -7.1875 13.75 C-6.66542969 14.63171875 -6.14335938 15.5134375 -5.60546875 16.421875 C-4.17453304 18.71972797 -2.66105577 20.86506946 -1 23 C0.65 22.67 2.3 22.34 4 22 C3.36441803 19.07108101 2.42419834 16.60437336 1.0625 13.9375 C0.72347656 13.26589844 0.38445312 12.59429687 0.03515625 11.90234375 C-1.08699921 9.77249581 -1.08699921 9.77249581 -3 7 C-3.33 6.34 -3.66 5.68 -4 5 C-6.24362573 4.7715451 -6.24362573 4.7715451 -8.125 7 Z M-41 25 C-39.57250019 28.79049707 -37.83763458 32.27122456 -35.875 35.8125 C-35.33617187 36.78832031 -34.79734375 37.76414062 -34.2421875 38.76953125 C-33.83226562 39.50558594 -33.42234375 40.24164063 -33 41 C-31.68 40.67 -30.36 40.34 -29 40 C-28.19530151 38.29887008 -28.19530151 38.29887008 -28 36 C-29.34805991 32.79033355 -30.53401431 30.46598569 -33 28 C-33.70710678 26.35008418 -34.37943989 24.68437744 -35 23 C-38.18490007 22.7226499 -38.18490007 22.7226499 -41 25 Z M-28 37 C-27 39 -27 39 -27 39 Z " fill="#020202" transform="translate(78,58)"/>
<path d="M0 0 C2.475 0.99 2.475 0.99 5 2 C4.85980308 4.81288705 4.71312045 7.62516885 4.5625 10.4375 C4.52318359 11.23994141 4.48386719 12.04238281 4.44335938 12.86914062 C4.11328125 18.88671875 4.11328125 18.88671875 3 20 C2.84019563 22.44608998 2.74070553 24.86731058 2.68359375 27.31640625 C2.66281265 28.04746078 2.64203156 28.77851532 2.62062073 29.53172302 C2.55504976 31.87521656 2.49620568 34.21882539 2.4375 36.5625 C2.39432192 38.14779855 2.35070787 39.73308529 2.30664062 41.31835938 C2.1993608 45.21212037 2.0981151 49.10599772 2 53 C0.140625 53.58984375 0.140625 53.58984375 -2 54 C-4.25 52.5625 -4.25 52.5625 -6 51 C-5.67 50.67 -5.34 50.34 -5 50 C-4.90048265 48.25487869 -4.86919697 46.5057679 -4.8671875 44.7578125 C-4.86589844 43.69175781 -4.86460937 42.62570313 -4.86328125 41.52734375 C-4.86908203 39.84318359 -4.86908203 39.84318359 -4.875 38.125 C-4.87113281 37.00996094 -4.86726563 35.89492187 -4.86328125 34.74609375 C-4.86457031 33.67746094 -4.86585938 32.60882813 -4.8671875 31.5078125 C-4.86887939 30.03272217 -4.86887939 30.03272217 -4.87060547 28.52783203 C-4.89354027 25.87385148 -4.89354027 25.87385148 -6 23 C-19.2 23.33 -32.4 23.66 -46 24 C-45.96047671 32.42154115 -45.96047671 32.42154115 -45.90991211 40.84301758 C-45.90741455 41.89126709 -45.90491699 42.9395166 -45.90234375 44.01953125 C-45.89710693 45.09307861 -45.89187012 46.16662598 -45.88647461 47.27270508 C-46 50 -46 50 -47 53 C-49 53.75 -49 53.75 -51 54 C-52.91280576 52.08719424 -52.2297757 48.58335405 -52.28125 45.97265625 C-52.30886414 44.91648354 -52.30886414 44.91648354 -52.33703613 43.838974 C-52.3959536 41.58023657 -52.4486881 39.32142226 -52.5 37.0625 C-52.5675677 34.0948886 -52.64127205 31.12752353 -52.71875 28.16015625 C-52.73232544 27.47365494 -52.74590088 26.78715363 -52.7598877 26.07984924 C-52.81506678 22.41634517 -52.81506678 22.41634517 -54 19 C-54.07181821 16.28239892 -54.09299506 13.59140612 -54.0625 10.875 C-54.05798828 10.12089844 -54.05347656 9.36679688 -54.04882812 8.58984375 C-54.03703499 6.72652873 -54.01909942 4.86325445 -54 3 C-52.35 2.67 -50.7 2.34 -49 2 C-47.67770811 4.64458379 -47.90322806 6.67761301 -47.9375 9.625 C-47.94652344 10.62789062 -47.95554687 11.63078125 -47.96484375 12.6640625 C-47.97644531 13.43492187 -47.98804687 14.20578125 -48 15 C-47.34 15 -46.68 15 -46 15 C-46 15.66 -46 16.32 -46 17 C-31.48 17 -16.96 17 -2 17 C-2 12.05 -2 7.1 -2 2 C-1.34 1.34 -0.68 0.68 0 0 Z " fill="#020202" transform="translate(158,142)"/>
<path d="M0 0 C2.55546201 0.3453327 4.63931001 0.81383742 6.9375 2 C9.57152412 3.2771026 12.11484648 3.60656997 15 4 C15.33 3.34 15.66 2.68 16 2 C19 0 19 0 21.6875 0.375 C22.450625 0.58125 23.21375 0.7875 24 1 C23.9375 3.25 23.9375 3.25 23 6 C18.47077638 9.49127654 14.92219931 10.61915784 9.21875 10.31640625 C5.53490119 9.79106866 3.19179206 8.99487004 0 7 C-1 3.875 -1 3.875 -1 1 C-0.67 0.67 -0.34 0.34 0 0 Z " fill="#010101" transform="translate(121,84)"/>
<path d="M0 0 C1.32 0.66 2.64 1.32 4 2 C2.39876334 24.04255577 2.39876334 24.04255577 0 29 C-2.475 28.01 -2.475 28.01 -5 27 C-3.70788253 3.70788253 -3.70788253 3.70788253 0 0 Z " fill="#020202" transform="translate(109,105)"/>
<path d="M0 0 C1.93457031 0.74121094 1.93457031 0.74121094 4 2 C4.72949219 3.87597656 4.72949219 3.87597656 5.046875 6.140625 C5.23056641 7.37619141 5.23056641 7.37619141 5.41796875 8.63671875 C5.52753906 9.49910156 5.63710937 10.36148438 5.75 11.25 C5.87503906 12.09691406 6.00007812 12.94382812 6.12890625 13.81640625 C6.7552424 18.24205621 7.1464181 22.51960599 7 27 C5.35 27.33 3.7 27.66 2 28 C-0.13500797 22.02197769 -0.39005796 16.23612341 -0.65625 9.9140625 C-0.82640625 8.47160156 -0.82640625 8.47160156 -1 7 C-1.66 6.67 -2.32 6.34 -3 6 C-1.125 1.125 -1.125 1.125 0 0 Z " fill="#020202" transform="translate(155,105)"/>
<path d="M0 0 C2 0.3125 2 0.3125 4 1 C5.48520725 3.97041449 5.1705822 6.69764447 5.1875 10 C5.20167969 11.258125 5.21585938 12.51625 5.23046875 13.8125 C5 17 5 17 3 19 C1 18.8125 1 18.8125 -1 18 C-3 15 -3 15 -2.65625 13.13671875 C-2.4396875 12.43160156 -2.223125 11.72648438 -2 11 C-1.71067867 8.384053 -1.49631227 5.76752284 -1.28125 3.14453125 C-1 1 -1 1 0 0 Z " fill="#040203" transform="translate(131,177)"/>
<path d="M0 0 C0.33 0 0.66 0 1 0 C1 6.6 1 13.2 1 20 C0.67 20 0.34 20 0 20 C0 13.4 0 6.8 0 0 Z " fill="#000000" transform="translate(152,172)"/>
<path d="M0 0 C1 4 1 4 1 4 Z " fill="#000000" transform="translate(85,118)"/>
<path d="M0 0 C2 1 2 1 2 1 Z " fill="#000000" transform="translate(50,136)"/>
<path d="" fill="#000000" transform="translate(0,0)"/>
<path d="" fill="#000000" transform="translate(0,0)"/>
<path d="M0 0 C2 1 2 1 2 1 Z " fill="#000000" transform="translate(137,16)"/>
<path d="" fill="#000000" transform="translate(0,0)"/>
<path d="" fill="#000000" transform="translate(0,0)"/>
<path d="" fill="#000000" transform="translate(0,0)"/>
<path d="" fill="#000000" transform="translate(0,0)"/>
<path d="" fill="#000000" transform="translate(0,0)"/>
<path d="" fill="#000000" transform="translate(0,0)"/>
<path d="" fill="#000000" transform="translate(0,0)"/>
<path d="" fill="#000000" transform="translate(0,0)"/>
<path d="" fill="#000000" transform="translate(0,0)"/>
<path d="" fill="#000000" transform="translate(0,0)"/>
<path d="" fill="#000000" transform="translate(0,0)"/>
<path d="" fill="#000000" transform="translate(0,0)"/>
<path d="" fill="#000000" transform="translate(0,0)"/>
<path d="" fill="#000000" transform="translate(0,0)"/>
<path d="" fill="#000000" transform="translate(0,0)"/>
<path d="" fill="#000000" transform="translate(0,0)"/>
<path d="" fill="#000000" transform="translate(0,0)"/>
<path d="" fill="#000000" transform="translate(0,0)"/>
<path d="" fill="#000000" transform="translate(0,0)"/>
<path d="" fill="#000000" transform="translate(0,0)"/>
<path d="" fill="#000000" transform="translate(0,0)"/>
<path d="" fill="#000000" transform="translate(0,0)"/>
<path d="" fill="#000000" transform="translate(0,0)"/>
<path d="" fill="#000000" transform="translate(0,0)"/>
<path d="" fill="#000000" transform="translate(0,0)"/>
<path d="" fill="#000000" transform="translate(0,0)"/>
<path d="" fill="#000000" transform="translate(0,0)"/>
<path d="" fill="#000000" transform="translate(0,0)"/>
<path d="" fill="#000000" transform="translate(0,0)"/>
<path d="" fill="#000000" transform="translate(0,0)"/>
<path d="" fill="#000000" transform="translate(0,0)"/>
<path d="" fill="#000000" transform="translate(0,0)"/>
<path d="" fill="#000000" transform="translate(0,0)"/>
<path d="" fill="#000000" transform="translate(0,0)"/>
<path d="" fill="#000000" transform="translate(0,0)"/>
<path d="" fill="#000000" transform="translate(0,0)"/>
<path d="" fill="#000000" transform="translate(0,0)"/>
<path d="" fill="#000000" transform="translate(0,0)"/>
<path d="" fill="#000000" transform="translate(0,0)"/>
<path d="" fill="#000000" transform="translate(0,0)"/>
<path d="" fill="#000000" transform="translate(0,0)"/>
<path d="" fill="#000000" transform="translate(0,0)"/>
<path d="" fill="#000000" transform="translate(0,0)"/>
<path d="" fill="#000000" transform="translate(0,0)"/>
<path d="" fill="#000000" transform="translate(0,0)"/>
<path d="" fill="#000000" transform="translate(0,0)"/>
<path d="" fill="#000000" transform="translate(0,0)"/>
<path d="" fill="#000000" transform="translate(0,0)"/>
<path d="" fill="#000000" transform="translate(0,0)"/>
<path d="" fill="#000000" transform="translate(0,0)"/>
<path d="" fill="#000000" transform="translate(0,0)"/>
<path d="" fill="#000000" transform="translate(0,0)"/>
<path d="" fill="#000000" transform="translate(0,0)"/>
<path d="" fill="#000000" transform="translate(0,0)"/>
<path d="" fill="#000000" transform="translate(0,0)"/>
<path d="" fill="#000000" transform="translate(0,0)"/>
<path d="" fill="#000000" transform="translate(0,0)"/>
<path d="" fill="#000000" transform="translate(0,0)"/>
<path d="" fill="#000000" transform="translate(0,0)"/>
<path d="" fill="#000000" transform="translate(0,0)"/>
<path d="" fill="#000000" transform="translate(0,0)"/>
<path d="" fill="#000000" transform="translate(0,0)"/>
<path d="" fill="#000000" transform="translate(0,0)"/>
<path d="" fill="#000000" transform="translate(0,0)"/>
<path d="" fill="#000000" transform="translate(0,0)"/>
<path d="" fill="#000000" transform="translate(0,0)"/>
<path d="" fill="#000000" transform="translate(0,0)"/>
<path d="" fill="#000000" transform="translate(0,0)"/>
<path d="" fill="#000000" transform="translate(0,0)"/>
<path d="" fill="#000000" transform="translate(0,0)"/>
<path d="" fill="#000000" transform="translate(0,0)"/>
<path d="" fill="#000000" transform="translate(0,0)"/>
<path d="" fill="#000000" transform="translate(0,0)"/>
<path d="" fill="#000000" transform="translate(0,0)"/>
<path d="" fill="#000000" transform="translate(0,0)"/>
<path d="" fill="#000000" transform="translate(0,0)"/>
<path d="" fill="#000000" transform="translate(0,0)"/>
<path d="" fill="#000000" transform="translate(0,0)"/>
<path d="" fill="#000000" transform="translate(0,0)"/>
<path d="" fill="#000000" transform="translate(0,0)"/>
<path d="" fill="#000000" transform="translate(0,0)"/>
<path d="" fill="#000000" transform="translate(0,0)"/>
<path d="" fill="#000000" transform="translate(0,0)"/>
<path d="" fill="#000000" transform="translate(0,0)"/>
<path d="" fill="#000000" transform="translate(0,0)"/>
<path d="" fill="#000000" transform="translate(0,0)"/>
<path d="" fill="#000000" transform="translate(0,0)"/>
<path d="" fill="#000000" transform="translate(0,0)"/>
</svg>
