<?xml version="1.0" encoding="UTF-8"?>
<svg version="1.1" xmlns="http://www.w3.org/2000/svg" width="260" height="243">
<path d="M0 0 C0.495 0.99 0.495 0.99 1 2 C2.010625 1.649375 3.02125 1.29875 4.0625 0.9375 C6.78095556 -0.00563764 8.27815032 0.04135471 11.19384766 0.47485352 C14.90250416 0.9865482 18.37331025 1.09870543 22.11328125 1.0625 C22.76773727 1.05871338 23.4221933 1.05492676 24.09648132 1.05102539 C26.85956961 1.03490126 29.6225015 1.00682604 32.38549805 0.97949219 C40.31297455 0.90801417 48.12736034 0.94733844 56 2 C56.99 4.31 57.98 6.62 59 9 C58.01 9.33 57.02 9.66 56 10 C55.28946458 11.64844218 54.63562227 13.32124851 54 15 C52.01805059 18.59257341 49.84916211 22.07878237 47.72070312 25.5859375 C45.09947371 29.96116395 42.89471266 34.26321836 41 39 C40.608125 39.969375 40.21625 40.93875 39.8125 41.9375 C39.544375 42.618125 39.27625 43.29875 39 44 C38.34 44 37.68 44 37 44 C37 44.66 37 45.32 37 46 C36.34 46 35.68 46 35 46 C35 46.99 35 47.98 35 49 C47.54 49 60.08 49 73 49 C73.99 50.98 73.99 50.98 75 53 C75.66 53.33 76.32 53.66 77 54 C71.8681457 60.43699255 66.58540082 66.61949128 60.96777344 72.63085938 C57.4847786 76.3878531 54.34566754 80.30817483 51.33984375 84.453125 C50.89769531 84.96359375 50.45554687 85.4740625 50 86 C49.34 86 48.68 86 48 86 C47.7525 86.556875 47.505 87.11375 47.25 87.6875 C44.63702467 92.52150436 40.85357081 96.14642919 37 100 C36.59265625 100.56332031 36.1853125 101.12664062 35.765625 101.70703125 C33.18006931 105.06482149 30.23059328 108.05601732 27.3125 111.125 C21.27410682 117.53044039 15.54946201 124.03602466 10.421875 131.20703125 C9 133 9 133 6.9375 134 C3.63076715 135.70670082 3.12940229 138.61179314 2 142 C1.01 142 0.02 142 -1 142 C-1 142.99 -1 143.98 -1 145 C-2.6875 146.875 -2.6875 146.875 -5 149 C-5.825 149.825 -6.65 150.65 -7.5 151.5 C-8.325 152.325 -9.15 153.15 -10 154 C-10.639375 154.78375 -11.27875 155.5675 -11.9375 156.375 C-14 158 -14 158 -17.25 157.75 C-18.1575 157.5025 -19.065 157.255 -20 157 C-20.4226546 151.7872599 -19.13132525 147.4256859 -17.65625 142.48828125 C-16.87249186 139.94542579 -16.87249186 139.94542579 -17 137 C-16.34 137 -15.68 137 -15 137 C-15.33 136.01 -15.66 135.02 -16 134 C-15.34 134 -14.68 134 -14 134 C-13.67 131.03 -13.34 128.06 -13 125 C-12.34 125 -11.68 125 -11 125 C-10.85413452 124.16625854 -10.85413452 124.16625854 -10.70532227 123.31567383 C-9.27157838 115.62587497 -7.13636837 108.18882734 -4.9375 100.6875 C-4.21564868 98.21276369 -3.49552592 95.73752236 -2.77734375 93.26171875 C-2.46015381 92.17850342 -2.14296387 91.09528809 -1.81616211 89.97924805 C-1.08795257 87.32105449 -0.40981257 84.72585132 0 82 C-1.95786982 80.04213018 -5.71520051 80.79242956 -8.39453125 80.75390625 C-9.92253156 80.72095804 -11.45052621 80.68774656 -12.97851562 80.65429688 C-15.39457158 80.60693285 -17.81060619 80.56253083 -20.22680664 80.52319336 C-22.55379868 80.48340554 -24.88030692 80.43186588 -27.20703125 80.37890625 C-27.92695755 80.3704921 -28.64688385 80.36207794 -29.3886261 80.35340881 C-33.04493423 80.26355286 -35.94104409 80.11854492 -39 78 C-40.42898312 75.14203376 -39.9610729 73.86505273 -39.0625 70.75 C-38.5365625 69.38875 -38.5365625 69.38875 -38 68 C-37.34 68 -36.68 68 -36 68 C-35.35242375 66.56328432 -34.70700547 65.12559584 -34.0625 63.6875 C-33.70285156 62.88699219 -33.34320313 62.08648437 -32.97265625 61.26171875 C-31.92153959 58.90510392 -31.92153959 58.90510392 -31 56 C-30.34 56 -29.68 56 -29 56 C-28.73316406 55.13632813 -28.46632813 54.27265625 -28.19140625 53.3828125 C-27.01084428 50.03079064 -25.57679919 47.02471 -23.9375 43.875 C-22.21426783 40.56336068 -20.85435005 37.6227728 -20 34 C-19 33 -18 32 -17 31 C-16.27840576 29.35636866 -15.60648579 27.68949614 -15 26 C-13.87230181 23.74460362 -12.56955023 21.64937048 -11.25 19.5 C-8.63901723 15.1796688 -6.33699533 10.78664995 -4.17578125 6.2265625 C-2.97568906 3.95396267 -1.59363645 2.01156416 0 0 Z M3 10 C-1.2981424 17.10557281 -1.2981424 17.10557281 -1 22 C-1.66 22 -2.32 22 -3 22 C-3.4125 22.825 -3.825 23.65 -4.25 24.5 C-5.14768885 26.2953777 -6.04546253 28.0907136 -6.94482422 29.88525391 C-8.66576053 33.32115402 -10.3767541 36.76145169 -12.0703125 40.2109375 C-15.42985037 47.03186565 -18.83271603 53.62650687 -23 60 C-24.72031036 63.23823126 -25.88783721 66.50463124 -27 70 C-25.000861 71.999139 -21.02539572 71.23205711 -18.28125 71.28125 C-17.12163757 71.30886414 -17.12163757 71.30886414 -15.93859863 71.33703613 C-13.45914532 71.39596647 -10.97962247 71.44871069 -8.5 71.5 C-5.23942997 71.56744268 -1.97909135 71.64111069 1.28125 71.71875 C2.03853394 71.73232544 2.79581787 71.74590088 3.5760498 71.7598877 C8.88719819 71.88719819 8.88719819 71.88719819 10 73 C10.39479404 78.6060754 9.34095554 82.9697172 7.5625 88.1875 C6.2708647 92.10582223 4.99377743 95.99431975 4 100 C3.52531806 101.64008916 3.04293224 103.27795967 2.5546875 104.9140625 C2.28269531 105.83960938 2.01070312 106.76515625 1.73046875 107.71875 C1.15741508 109.66556245 0.57923789 111.61087369 -0.00390625 113.5546875 C-0.27332031 114.47765625 -0.54273438 115.400625 -0.8203125 116.3515625 C-1.07055176 117.19541504 -1.32079102 118.03926758 -1.57861328 118.90869141 C-2.23262276 121.04731597 -2.23262276 121.04731597 -1 123 C-1.66 123 -2.32 123 -3 123 C-3.144375 123.5775 -3.28875 124.155 -3.4375 124.75 C-3.95833333 126.83333333 -4.47916667 128.91666667 -5 131 C-3.515 131.495 -3.515 131.495 -2 132 C-0.43750191 130.68798827 -0.43750191 130.68798827 1 129 C1 128.01 1 127.02 1 126 C1.99 125.505 1.99 125.505 3 125 C6.24175299 122.58946573 8.69571951 120.30614157 11 117 C14.26919705 112.75004384 17.8187394 108.95561295 21.8125 105.375 C23.32680994 103.92438937 23.32680994 103.92438937 23 101 C24.98 100.01 24.98 100.01 27 99 C27 98.01 27 97.02 27 96 C27.61875 95.938125 28.2375 95.87625 28.875 95.8125 C29.926875 95.4103125 29.926875 95.4103125 31 95 C31.68132451 93.33927151 32.34742127 91.672233 33 90 C33.639375 89.690625 34.27875 89.38125 34.9375 89.0625 C37.31457883 88.09770928 37.31457883 88.09770928 38.4375 85.0625 C40.23627266 81.53690559 41.65522942 80.92324308 45 79 C46.03789581 77.35666496 47.03567924 75.68756133 48 74 C49.66666667 72.33333333 51.33333333 70.66666667 53 69 C53.33 68.01 53.66 67.02 54 66 C54.66 65.67 55.32 65.34 56 65 C58.16666667 63.16666667 58.16666667 63.16666667 60 61 C60 60.01 60 59.02 60 58 C58.41747437 57.96241577 58.41747437 57.96241577 56.80297852 57.92407227 C52.90229372 57.83015891 49.00179375 57.72989966 45.10131836 57.62768555 C43.41060701 57.58427561 41.71985009 57.54260511 40.02905273 57.50268555 C37.60386394 57.44512906 35.17890585 57.38139351 32.75390625 57.31640625 C31.99348526 57.29969376 31.23306427 57.28298126 30.44960022 57.26576233 C25.11387171 57.11387171 25.11387171 57.11387171 24 56 C24.38665166 50.78664681 25.69811998 47.09486081 28.25 42.5625 C28.87777344 41.44101563 29.50554687 40.31953125 30.15234375 39.1640625 C32.02351221 35.95973596 33.92917495 32.79112781 35.95703125 29.68359375 C37.03304466 28.00627055 37.03304466 28.00627055 37.90625 26.16796875 C39.90588787 22.20440082 42.32581096 18.46790908 44.63671875 14.6796875 C45.08660156 13.79539062 45.53648437 12.91109375 46 12 C45.505 11.01 45.505 11.01 45 10 C31.14 10 17.28 10 3 10 Z M-20 35 C-19 37 -19 37 -19 37 Z M1 79 C2 81 2 81 2 81 Z M-5 132 C-4.67 132.66 -4.34 133.32 -4 134 C-3.67 133.34 -3.34 132.68 -3 132 C-3.66 132 -4.32 132 -5 132 Z M-6 134 C-5 136 -5 136 -5 136 Z " fill="#010101" transform="translate(129,76)"/>
<path d="M0 0 C5.01656959 1.4333056 7.01452882 3.90563952 10 8 C10 8.66 10 9.32 10 10 C10.99 10.33 11.98 10.66 13 11 C18 16.46511628 18 16.46511628 18 19 C18.66 19 19.32 19 20 19 C20 19.66 20 20.32 20 21 C20.66 21.33 21.32 21.66 22 22 C26 27.52941176 26 27.52941176 26 30 C26.639375 30.103125 27.27875 30.20625 27.9375 30.3125 C28.618125 30.539375 29.29875 30.76625 30 31 C30.495 32.485 30.495 32.485 31 34 C31.66 34.33 32.32 34.66 33 35 C33 37.31 33 39.62 33 42 C28.40279823 43.47110457 24.86506545 44.04638918 20 44 C20.02141052 44.56962967 20.04282104 45.13925934 20.06488037 45.72615051 C20.28340348 51.64630452 20.47349308 57.56688378 20.64697266 63.48852539 C20.71549848 65.6993764 20.79131169 67.9100139 20.87451172 70.12036133 C20.99274327 73.29480733 21.08487976 76.46909497 21.171875 79.64453125 C21.21439392 80.63524124 21.25691284 81.62595123 21.30072021 82.64668274 C21.33120453 84.02777473 21.33120453 84.02777473 21.36230469 85.43676758 C21.38895203 86.2472908 21.41559937 87.05781403 21.4430542 87.89289856 C21 90 21 90 18.97735596 91.78520203 C18.32482849 92.18608536 17.67230103 92.58696869 17 93 C15.02 92.01 13.04 91.02 11 90 C11 89.01 11 88.02 11 87 C10.99509672 85.33121627 10.9897464 83.66243383 10.98413086 81.99365234 C10.96620505 76.34212783 10.95460458 70.69060695 10.94506836 65.0390625 C10.94001538 62.5927691 10.93317422 60.14647876 10.92456055 57.70019531 C10.91249569 54.18293515 10.90677357 50.6657145 10.90234375 47.1484375 C10.89718246 46.0474472 10.89202118 44.94645691 10.88670349 43.81210327 C10.88662796 42.80080353 10.88655243 41.78950378 10.88647461 40.74755859 C10.884254 39.8528183 10.88203339 38.958078 10.87974548 38.03622437 C11 36 11 36 12 35 C14.32817964 34.63239269 16.6618385 34.29758419 19 34 C18.175 33.05125 17.35 32.1025 16.5 31.125 C14 28.25 14 28.25 14 26 C13.34 26 12.68 26 12 26 C10.6328125 24.42578125 10.6328125 24.42578125 9.125 22.3125 C8.5990625 21.58675781 8.073125 20.86101563 7.53125 20.11328125 C7.0259375 19.41589844 6.520625 18.71851562 6 18 C4.67518731 16.32655239 3.34592097 14.65651812 2 13 C0.68 13.33 -0.64 13.66 -2 14 C-2.33 15.65 -2.66 17.3 -3 19 C-3.99 19 -4.98 19 -6 19 C-6.185625 19.66 -6.37125 20.32 -6.5625 21 C-8.32198888 24.67197679 -10.69983645 27.24951032 -13.44140625 30.23046875 C-15.07056716 31.92814506 -15.07056716 31.92814506 -16 34 C-15.195625 34.309375 -14.39125 34.61875 -13.5625 34.9375 C-11 36 -11 36 -10 37 C-9.89583207 38.76900035 -9.8614618 40.54215708 -9.85473633 42.31420898 C-9.84835648 43.44886093 -9.84197662 44.58351288 -9.83540344 45.75254822 C-9.83429062 46.98791824 -9.8331778 48.22328827 -9.83203125 49.49609375 C-9.82870285 50.75511002 -9.82537445 52.01412628 -9.82194519 53.31129456 C-9.81687057 55.98043335 -9.81410586 58.64947041 -9.81469727 61.31860352 C-9.8147989 64.74312715 -9.80114799 68.16744351 -9.78392506 71.59191799 C-9.77014884 74.85163564 -9.77071674 78.11135092 -9.76953125 81.37109375 C-9.76234573 82.60443954 -9.75516022 83.83778534 -9.74775696 85.10850525 C-9.75083359 86.24630936 -9.75391022 87.38411346 -9.75708008 88.55639648 C-9.75565506 89.56153793 -9.75423004 90.56667938 -9.75276184 91.60227966 C-10 94 -10 94 -12 96 C-14.5 95.9375 -14.5 95.9375 -17 95 C-19.90493111 90.23461428 -19.15276698 84.81469199 -18.9765625 79.44921875 C-18.95153656 78.43527542 -18.92651062 77.42133209 -18.90072632 76.37666321 C-18.81872862 73.14659184 -18.72206009 69.91715041 -18.625 66.6875 C-18.56673982 64.49416614 -18.50943699 62.30080662 -18.453125 60.10742188 C-18.31318004 54.73793437 -18.1611963 49.36888927 -18 44 C-18.75925781 43.95101562 -19.51851562 43.90203125 -20.30078125 43.8515625 C-21.29464844 43.77679688 -22.28851563 43.70203125 -23.3125 43.625 C-24.29863281 43.55539063 -25.28476562 43.48578125 -26.30078125 43.4140625 C-29 43 -29 43 -32 41 C-30.46395304 37.85808576 -28.94268841 34.91403262 -27 32 C-26.67 31.34 -26.34 30.68 -26 30 C-25.34 29.34 -24.68 28.68 -24 28 C-23.67 27.34 -23.34 26.68 -23 26 C-21 24 -21 24 -18 23 C-16.93056995 21.14298156 -16.93056995 21.14298156 -16 19 C-11.3574099 12.15828827 -5.89636509 5.78948233 0 0 Z " fill="#010101" transform="translate(86,26)"/>
<path d="M0 0 C2.31 0.66 4.62 1.32 7 2 C7 12.33333333 7 22.66666667 7 33 C4.6875 33.625 4.6875 33.625 2 34 C1.01 33.34 0.02 32.68 -1 32 C-1.22241655 29.41403691 -1.28136917 27.07538488 -1.1875 24.5 C-1.17396484 23.81035156 -1.16042969 23.12070313 -1.14648438 22.41015625 C-1.10956718 20.60648769 -1.05583247 18.80318215 -1 17 C-1 15.42834173 -1.01480555 13.85668276 -1.03515625 12.28515625 C-1.04417969 11.22167969 -1.05320312 10.15820312 -1.0625 9.0625 C-1.07410156 8.00160156 -1.08570312 6.94070312 -1.09765625 5.84765625 C-1 3 -1 3 0 0 Z M1 16 C2 18 2 18 2 18 Z " fill="#020202" transform="translate(69,122)"/>
<path d="M0 0 C3 1 3 1 3 1 Z " fill="#000000" transform="translate(149,76)"/>
<path d="" fill="#000000" transform="translate(0,0)"/>
<path d="" fill="#000000" transform="translate(0,0)"/>
<path d="" fill="#000000" transform="translate(0,0)"/>
<path d="" fill="#000000" transform="translate(0,0)"/>
<path d="" fill="#000000" transform="translate(0,0)"/>
<path d="" fill="#000000" transform="translate(0,0)"/>
<path d="" fill="#000000" transform="translate(0,0)"/>
<path d="" fill="#000000" transform="translate(0,0)"/>
<path d="" fill="#000000" transform="translate(0,0)"/>
<path d="" fill="#000000" transform="translate(0,0)"/>
<path d="" fill="#000000" transform="translate(0,0)"/>
<path d="" fill="#000000" transform="translate(0,0)"/>
<path d="" fill="#000000" transform="translate(0,0)"/>
<path d="" fill="#000000" transform="translate(0,0)"/>
<path d="" fill="#000000" transform="translate(0,0)"/>
<path d="" fill="#000000" transform="translate(0,0)"/>
<path d="" fill="#000000" transform="translate(0,0)"/>
<path d="" fill="#000000" transform="translate(0,0)"/>
<path d="" fill="#000000" transform="translate(0,0)"/>
<path d="" fill="#000000" transform="translate(0,0)"/>
<path d="" fill="#000000" transform="translate(0,0)"/>
<path d="" fill="#000000" transform="translate(0,0)"/>
<path d="" fill="#000000" transform="translate(0,0)"/>
<path d="" fill="#000000" transform="translate(0,0)"/>
<path d="" fill="#000000" transform="translate(0,0)"/>
<path d="" fill="#000000" transform="translate(0,0)"/>
<path d="" fill="#000000" transform="translate(0,0)"/>
<path d="" fill="#000000" transform="translate(0,0)"/>
<path d="" fill="#000000" transform="translate(0,0)"/>
<path d="" fill="#000000" transform="translate(0,0)"/>
<path d="" fill="#000000" transform="translate(0,0)"/>
<path d="" fill="#000000" transform="translate(0,0)"/>
<path d="" fill="#000000" transform="translate(0,0)"/>
<path d="" fill="#000000" transform="translate(0,0)"/>
<path d="" fill="#000000" transform="translate(0,0)"/>
<path d="" fill="#000000" transform="translate(0,0)"/>
<path d="" fill="#000000" transform="translate(0,0)"/>
<path d="" fill="#000000" transform="translate(0,0)"/>
<path d="" fill="#000000" transform="translate(0,0)"/>
<path d="" fill="#000000" transform="translate(0,0)"/>
<path d="" fill="#000000" transform="translate(0,0)"/>
<path d="" fill="#000000" transform="translate(0,0)"/>
<path d="" fill="#000000" transform="translate(0,0)"/>
<path d="" fill="#000000" transform="translate(0,0)"/>
<path d="" fill="#000000" transform="translate(0,0)"/>
<path d="" fill="#000000" transform="translate(0,0)"/>
<path d="" fill="#000000" transform="translate(0,0)"/>
<path d="" fill="#000000" transform="translate(0,0)"/>
<path d="" fill="#000000" transform="translate(0,0)"/>
<path d="" fill="#000000" transform="translate(0,0)"/>
<path d="" fill="#000000" transform="translate(0,0)"/>
<path d="" fill="#000000" transform="translate(0,0)"/>
<path d="" fill="#000000" transform="translate(0,0)"/>
<path d="" fill="#000000" transform="translate(0,0)"/>
<path d="" fill="#000000" transform="translate(0,0)"/>
<path d="" fill="#000000" transform="translate(0,0)"/>
<path d="" fill="#000000" transform="translate(0,0)"/>
<path d="" fill="#000000" transform="translate(0,0)"/>
<path d="" fill="#000000" transform="translate(0,0)"/>
<path d="" fill="#000000" transform="translate(0,0)"/>
</svg>
