<?xml version="1.0" encoding="UTF-8"?>
<svg version="1.1" xmlns="http://www.w3.org/2000/svg" width="200" height="200">
<path d="M0 0 C2.31 0 4.62 0 7 0 C7.64166311 11.59757032 8.26948231 23.1958211 8.88287354 34.79492188 C8.98492624 36.71621424 9.08874561 38.63741261 9.19287109 40.55859375 C10.5288551 65.49696184 10.06220468 90.24756244 8.71166992 115.16918945 C7.95748826 129.21997002 7.39608107 143.06254516 9.25 157.0625 C9.41435547 158.53106445 9.41435547 158.53106445 9.58203125 160.02929688 C10.31890441 165.7497596 11.3327231 169.5068281 15 174 C14.9278125 173.14921875 14.855625 172.2984375 14.78125 171.421875 C12.01575039 135.31674114 12.01575039 135.31674114 19.47265625 118.72290039 C22.20977875 112.40369693 23.05993764 105.50455571 24.1875 98.75 C24.32007202 97.95775024 24.45264404 97.16550049 24.5892334 96.34924316 C26.83674813 82.49542726 27.65562135 68.77463669 27.75 54.75 C27.76525726 53.82489624 27.78051453 52.89979248 27.79623413 51.94665527 C28.03346026 37.84659254 28.03346026 37.84659254 21 26 C18.43271483 19.9724609 18.81743214 14.33246014 20 8 C21.37059969 4.60329643 22.4330961 2.5669039 25 0 C26.85468483 -0.24609566 26.85468483 -0.24609566 29.15078735 -0.24050903 C30.02019455 -0.24325836 30.88960175 -0.24600769 31.78535461 -0.24884033 C32.74129013 -0.24164978 33.69722565 -0.23445923 34.68212891 -0.22705078 C35.68703873 -0.22734283 36.69194855 -0.22763489 37.72731018 -0.22793579 C41.06048107 -0.22653856 44.39343049 -0.21095882 47.7265625 -0.1953125 C50.03298826 -0.19158377 52.3394156 -0.18873614 54.64584351 -0.18673706 C60.72534536 -0.17908959 66.80475211 -0.15943154 72.88421631 -0.1373291 C79.08425612 -0.11689463 85.28431125 -0.10774048 91.484375 -0.09765625 C103.65629185 -0.0761867 115.82813803 -0.04203735 128 0 C128.6509259 1.24735567 129.29551669 2.49801832 129.9375 3.75 C130.47697266 4.79414063 130.47697266 4.79414063 131.02734375 5.859375 C134.05400803 12.52046746 133.44822954 18.97497391 131.0625 25.7421875 C129.92285154 28.16394047 128.56388496 29.991992 126.875 32.0625 C123.65331934 36.02580517 123.18058079 38.94373799 123 44 C123.8353125 44.37125 123.8353125 44.37125 124.6875 44.75 C131.41521596 48.38660322 135.17503898 53.67066598 137.63671875 60.859375 C138.14256622 63.84006761 138.09270634 66.72936643 138.0625 69.75 C138.05347656 70.92046875 138.04445312 72.0909375 138.03515625 73.296875 C138.01775391 74.63492188 138.01775391 74.63492188 138 76 C140.42941572 72.35587643 140.32946611 70.41673847 140.48657227 66.06591797 C140.51451874 65.3648291 140.54246521 64.66374023 140.57125854 63.94140625 C140.66157637 61.62523753 140.73884152 59.30881527 140.81640625 56.9921875 C140.87745942 55.38457654 140.93947898 53.77700202 141.00242615 52.16946411 C141.1661243 47.93851989 141.3194154 43.70726876 141.46972656 39.47583008 C141.71159585 32.69521556 141.96585678 25.91508425 142.22645378 19.13516617 C142.31567858 16.76154556 142.3984414 14.38775967 142.48060608 12.0138855 C142.53445765 10.56767976 142.58851816 9.12148178 142.64282227 7.67529297 C142.68786392 6.40748993 142.73290558 5.13968689 142.77931213 3.83346558 C143 1 143 1 144 0 C146.33297433 -0.04092937 148.66705225 -0.04241723 151 0 C150.96241577 0.94482491 150.96241577 0.94482491 150.92407227 1.90873718 C150.65959172 8.57821243 150.40098678 15.24789863 150.14550781 21.91772461 C150.04995164 24.3933669 149.95299102 26.86895546 149.85449219 29.34448242 C149.57229877 36.44970962 149.32036088 43.55485558 149.10839844 50.66253662 C149.00423348 53.86965588 148.8662109 57.0740517 148.7265625 60.27978516 C148.66978783 62.17213905 148.61497482 64.06455324 148.5625 65.95703125 C148.51601318 66.80762619 148.46952637 67.65822113 148.42163086 68.53459167 C148.27386641 72.89465105 148.27386641 72.89465105 150.33154297 76.56161499 C151.83645841 77.77423604 153.41613115 78.89248939 155 80 C155.33 80.99 155.66 81.98 156 83 C156.63502441 83.01458252 157.27004883 83.02916504 157.92431641 83.04418945 C160.82513081 83.11905089 163.72484206 83.21558426 166.625 83.3125 C168.12353516 83.34633789 168.12353516 83.34633789 169.65234375 83.38085938 C179.48025428 83.73882963 179.48025428 83.73882963 184 87 C187.56001867 91.47120661 188.51626085 94.48017376 188.56640625 100.1640625 C188.57260483 100.83738617 188.57880341 101.51070984 188.58518982 102.20443726 C188.59225994 103.62472093 188.58916304 105.04508796 188.57641602 106.46533203 C188.56266363 108.59960623 188.59651048 110.72938434 188.63476562 112.86328125 C188.67658651 120.86580661 187.53517448 127.03761175 184.06616211 134.35839844 C182.43647083 138.39624126 182.76212471 141.60405336 183.5 145.8125 C183.60876465 146.59802246 183.7175293 147.38354492 183.82958984 148.19287109 C184.06666776 149.89011089 184.31758166 151.58546551 184.58105469 153.27880859 C185.18637374 157.21056045 185.7063716 161.15238318 186.22460938 165.09643555 C186.48473219 167.06401088 186.75376493 169.03043617 187.03320312 170.99536133 C187.82319178 176.72531113 188.13012443 182.21537758 188 188 C185.69 188 183.38 188 181 188 C180.13801131 181.73880243 179.28442406 175.47649973 178.43652344 169.21337891 C178.14741815 167.08518884 177.85642769 164.95725393 177.56347656 162.82958984 C177.14145711 159.76205392 176.72634317 156.69364837 176.3125 153.625 C176.18125732 152.68197021 176.05001465 151.73894043 175.91479492 150.76733398 C173.96908692 136.18431124 173.96908692 136.18431124 177.46875 129.41015625 C180.60021459 122.37873558 180.67654338 116.04090238 180.5 108.4375 C180.50257813 107.18130859 180.50515625 105.92511719 180.5078125 104.63085938 C180.74979085 98.63598272 180.74979085 98.63598272 178.84448242 93.15722656 C176.21168208 91.50541007 174.11355062 91.56374514 171.01953125 91.48828125 C169.27446289 91.43510742 169.27446289 91.43510742 167.49414062 91.38085938 C166.27919922 91.35830078 165.06425781 91.33574219 163.8125 91.3125 C162.58595703 91.27833984 161.35941406 91.24417969 160.09570312 91.20898438 C157.06389322 91.1264059 154.03237621 91.05728631 151 91 C149.02 87.04 149.02 87.04 147 83 C145.68 83 144.36 83 143 83 C141.4725361 86.0549278 141.76008168 89.2763314 141.68359375 92.6328125 C141.6524221 93.76056595 141.6524221 93.76056595 141.62062073 94.91110229 C141.55517295 97.31564085 141.49626262 99.72028967 141.4375 102.125 C141.39431023 103.75391771 141.35069579 105.38282422 141.30664062 107.01171875 C141.19949649 111.00769915 141.09821567 115.00379059 141 119 C138.69 119 136.38 119 134 119 C134 116.03 134 113.06 134 110 C131.36 110 128.72 110 126 110 C126.13277344 110.56847656 126.26554687 111.13695313 126.40234375 111.72265625 C126.66724609 112.88087891 126.66724609 112.88087891 126.9375 114.0625 C127.19853516 115.19365234 127.19853516 115.19365234 127.46484375 116.34765625 C128 119 128 119 128.06445312 122.46289062 C128.37318359 123.63013672 128.68191406 124.79738281 129 126 C132.07854295 127.65102928 132.07854295 127.65102928 134.37620544 128.43605042 C138.28475239 129.92408501 141.40779243 131.66055188 144 135 C146.65129742 143.58671712 145.39653088 153.21850513 144.9375 162.0625 C144.86220772 164.57467158 144.79377543 167.08705874 144.73242188 169.59960938 C144.56761216 175.73779535 144.31716523 181.86789917 144 188 C141.69 188 139.38 188 137 188 C137 186.02 137 184.04 137 182 C135.02 182 133.04 182 131 182 C131 183.98 131 185.96 131 188 C128.3333581 189.33332095 126.83319697 188.67102033 124 188 C124.40882076 179.9096523 124.94783939 171.90154282 126.0625 163.875 C127.47724207 153.33916585 127.84257109 143.3043202 125 133 C121.0722976 134.42703385 117.76168576 136.29091766 114.25390625 138.5546875 C112.62678711 139.60076172 112.62678711 139.60076172 110.96679688 140.66796875 C109.83199428 141.40358881 108.69722894 142.13926633 107.5625 142.875 C106.4318866 143.60324661 105.30102927 144.33111465 104.16992188 145.05859375 C101.10840458 147.03177344 98.04989004 149.00889606 95 151 C93.90534424 151.58185059 92.81068848 152.16370117 91.68286133 152.76318359 C88.66935318 154.8124761 88.66935318 154.8124761 88.22705078 158.48339844 C88.18631567 159.85816128 88.17747647 161.23412445 88.1953125 162.609375 C88.18160614 163.33618469 88.16789978 164.06299438 88.15377808 164.81182861 C88.11649199 167.12518289 88.120191 169.43638804 88.125 171.75 C88.10687182 173.32164811 88.08606873 174.89326781 88.0625 176.46484375 C88.01066374 180.31025569 87.99556796 184.15425786 88 188 C85.69 188 83.38 188 81 188 C81 177.77 81 167.54 81 157 C77.04 157 73.08 157 69 157 C69 167.23 69 177.46 69 188 C66.69 188 64.38 188 62 188 C62 177.11 62 166.22 62 155 C60.35 154.34 58.7 153.68 57 153 C55.08344037 151.86751082 53.19305085 150.69009644 51.32421875 149.48046875 C50.24849609 148.78759766 49.17277344 148.09472656 48.06445312 147.38085938 C46.93870064 146.64989579 45.81305021 145.91877502 44.6875 145.1875 C42.48329555 143.76397813 40.27887324 142.34079353 38.07421875 140.91796875 C37.03442871 140.24556152 35.99463867 139.5731543 34.92333984 138.88037109 C31.30332488 136.55187976 27.65816934 134.26797588 24 132 C20.0930854 145.6742011 22.09948923 159.53457637 23.93237305 173.39453125 C24.58005065 178.29612456 25.20589987 183.04124485 25 188 C22.69 188 20.38 188 18 188 C17.67 186.35 17.34 184.7 17 183 C15.989375 182.87625 14.97875 182.7525 13.9375 182.625 C9.36840163 181.18846806 7.05813993 178.57465112 4.51171875 174.59765625 C-4.90845556 152.17910189 0.04707956 122.28705795 1.2878418 98.66699219 C2.32465585 78.65979339 1.78439022 58.93873445 0.85449219 38.93188477 C0.25637988 25.94328606 -0.14786716 13.00306842 0 0 Z M29 7 C25.87950509 11.68074237 26.4186354 16.52063864 27 22 C29.31973425 26.90713015 32.71776931 29.8111048 37 33 C40.46938591 34.15646197 43.19360075 34.14120299 46.85473633 34.16113281 C47.89432243 34.16858017 47.89432243 34.16858017 48.95491028 34.17617798 C51.24729406 34.19078016 53.53960861 34.1975987 55.83203125 34.203125 C57.42762758 34.20887851 59.02322389 34.21463622 60.61882019 34.22039795 C63.96536582 34.23090272 67.31188747 34.23674866 70.65844727 34.24023438 C74.93901951 34.24571487 79.21927299 34.2697354 83.49974537 34.29820633 C86.79665542 34.31686491 90.09348923 34.32204004 93.39044762 34.32357025 C94.96805245 34.32659057 96.54565614 34.33459813 98.123209 34.34775543 C100.33474324 34.36488215 102.54550574 34.36291988 104.75708008 34.35644531 C106.64213005 34.36191376 106.64213005 34.36191376 108.56526184 34.36749268 C113.75290025 33.81245208 117.80205 31.7965695 121.25 27.875 C124.40439636 23.94030559 125.76082557 20.03152127 126 15 C125.59016681 12.14713517 125.10941082 9.10941082 123 7 C120.08888988 6.88876263 117.20128497 6.8425992 114.28930664 6.83886719 C113.37553757 6.83390228 112.46176849 6.82893738 111.52030945 6.82382202 C108.48358419 6.80916138 105.44691115 6.80239234 102.41015625 6.796875 C100.30887347 6.79112728 98.20759071 6.7853695 96.10630798 6.77960205 C91.69529983 6.76908129 87.28430996 6.7632455 82.87329102 6.75976562 C77.20898397 6.75427508 71.54491661 6.73023956 65.88068485 6.70179367 C61.53909082 6.6832118 57.19755506 6.6779641 52.85592461 6.67642975 C50.76704025 6.67339319 48.67815716 6.6653312 46.5893116 6.65224457 C43.67271568 6.63527493 40.75671252 6.63704182 37.84008789 6.64355469 C36.96988007 6.6343399 36.09967224 6.62512512 35.20309448 6.6156311 C32.5639883 6.59849065 32.5639883 6.59849065 29 7 Z M38 41 C39.65 50.9 41.3 60.8 43 71 C43 87.85328945 37.23589171 101.56459627 28.71484375 115.87890625 C26.75923013 118.84468418 26.75923013 118.84468418 27 122 C58.02 122 89.04 122 121 122 C118.16140204 109.02326257 118.16140204 109.02326257 111 98 C107.13579326 96.20977895 103.65824676 95.38695072 99.5 94.65625 C93.66961038 93.56305195 90.68265659 91.36804074 87.29296875 86.59765625 C82.32240102 78.67035736 81.15928614 72.3630187 82 63 C83.71452605 56.55942287 86.31832419 50.25247429 92.18359375 46.6640625 C93.76697377 45.78750332 95.36428904 44.93548715 96.9765625 44.11328125 C99.14084373 43.04493485 99.14084373 43.04493485 101 41 C80.21 41 59.42 41 38 41 Z M93.1875 54.75 C89.00076708 60.97028892 87.29227326 65.9997567 88.359375 73.5390625 C89.97455722 79.7437259 93.64140634 84.51691412 99 88 C102.48280267 89.74140134 105.11818897 90.22181777 109 90 C108.63648437 89.57589844 108.27296875 89.15179688 107.8984375 88.71484375 C106.8412679 87.48147922 105.7853667 86.2470268 104.73046875 85.01171875 C103.59667302 83.69364923 102.45371742 82.38339139 101.30078125 81.08203125 C100.76839844 80.47746094 100.23601562 79.87289062 99.6875 79.25 C99.19636719 78.69828125 98.70523438 78.1465625 98.19921875 77.578125 C95.38865377 73.87953134 95.43867097 69.43368585 96 65 C97.11029158 61.42867996 98.60088006 58.8831755 101.80078125 56.86328125 C106.42021711 54.88096023 110.08736512 54.6353792 115 56 C120.27482984 58.75208513 124.04097106 62.9102212 128.14453125 67.171875 C129.68459504 69.11697308 129.68459504 69.11697308 131 69 C130.5499992 62.47498845 129.4322263 58.32180615 124.54296875 53.58984375 C118.70225219 48.51803165 114.67137683 47.53883431 107.04296875 47.6875 C101.04782273 48.3031761 97.43814757 50.59381127 93.1875 54.75 Z M103.5 64.125 C101.57004376 67.82408278 101.77439517 69.02687891 103 73 C104.95831749 75.64088578 107.2630354 77.86911376 109.625 80.1484375 C110.28709473 80.80582916 110.94918945 81.46322083 111.63134766 82.14053345 C113.74278813 84.23066917 115.87125728 86.30250454 118 88.375 C119.43337885 89.79186974 120.86568362 91.20982696 122.296875 92.62890625 C127.71040476 99.00304383 127.71040476 99.00304383 134 103 C135.37280589 94.93175489 136.81447565 86.36682433 132.16748047 79.15673828 C122.61041828 67.61131914 122.61041828 67.61131914 109.625 61.625 C105.91884754 61.66289471 105.91884754 61.66289471 103.5 64.125 Z M35 66 C34.34 74.25 33.68 82.5 33 91 C35.5882195 87.11767075 36.13053468 84.27485461 36.09765625 79.671875 C36.09443359 78.87265625 36.09121094 78.0734375 36.08789062 77.25 C36.07951172 76.425 36.07113281 75.6 36.0625 74.75 C36.05573242 73.48929687 36.05573242 73.48929687 36.04882812 72.203125 C36.03707961 70.13538599 36.01914522 68.06768376 36 66 C35.67 66 35.34 66 35 66 Z M32 92 C33 94 33 94 33 94 Z M35 129 C37.88544993 131.88544993 39.68740392 133.61013183 43.01171875 135.5859375 C44.14105835 136.26595825 44.14105835 136.26595825 45.29321289 136.9597168 C46.08332764 137.42676025 46.87344238 137.89380371 47.6875 138.375 C52.56180936 141.2591868 57.19160689 144.06812408 61.5625 147.6875 C67.25720895 151.37037162 73.92449042 151.79462493 80.47412109 150.73339844 C88.59326733 148.3759738 95.6882524 142.68494568 102.46875 137.80371094 C105.71735689 135.48882786 109.05082153 133.31614648 112.40039062 131.15087891 C112.92826172 130.77108887 113.45613281 130.39129883 114 130 C114 129.67 114 129.34 114 129 C87.93 129 61.86 129 35 129 Z M135 139 C134.95101562 140.258125 134.90203125 141.51625 134.8515625 142.8125 C134.3918078 153.63850209 133.5432858 164.27191618 132 175 C134.475 174.505 134.475 174.505 137 174 C137 162.45 137 150.9 137 139 C136.34 139 135.68 139 135 139 Z " fill="#010101" transform="translate(6,6)"/>
<path d="M0 0 C2.31 0 4.62 0 7 0 C7 3.63 7 7.26 7 11 C4.69 11 2.38 11 0 11 C0 7.37 0 3.74 0 0 Z " fill="#000000" transform="translate(78,96)"/>
</svg>
