<?xml version="1.0" encoding="UTF-8"?>
<svg version="1.1" xmlns="http://www.w3.org/2000/svg" width="500" height="500">
<path d="M0 0 C18.01594252 14.96577504 31.82544405 34.98706476 34.80078125 58.75927734 C36.16058068 74.05368808 36.01796138 89.387099 31 104 C30.6299585 105.08015381 30.6299585 105.08015381 30.25244141 106.18212891 C26.81678135 115.87326331 22.54708202 123.98694092 16 132 C14.99457357 133.3292462 13.99263196 134.66117232 13 136 C14.0415625 136.02578125 15.083125 136.0515625 16.15625 136.078125 C51.70079141 137.33249065 77.04963331 156.07816757 101 181 C102.09538668 182.23945114 103.18006311 183.4885143 104.25 184.75 C111.74488999 193.51521033 120.18137991 201.75218429 128.9765625 209.203125 C135.13398542 214.67110674 141.04353342 220.59871656 146.375 226.875 C153.00377404 234.64385803 160.42716543 242.04952787 168.1875 248.6875 C178.35705619 257.3949097 191.08760728 268.34189371 192.2019043 282.57983398 C192.30551219 285.6601861 192.32192513 288.73048158 192.3125 291.8125 C192.32861328 292.85470703 192.34472656 293.89691406 192.36132812 294.97070312 C192.36929671 307.66466405 188.19983325 316.72692742 179.27197266 325.74560547 C175.81422745 329.08658875 172.27740852 332.33948118 168.73828125 335.59375 C163.66213688 340.2751659 158.75660486 345.1169612 153.875 350 C153.09406982 350.77666016 152.31313965 351.55332031 151.50854492 352.35351562 C148.01571061 355.85425142 144.62001086 359.38376576 141.3984375 363.13671875 C138.08596442 366.98055388 134.49734317 370.39815818 130.75 373.8125 C120.69630396 383.09893081 111.07836852 392.81760162 101.46435547 402.55541992 C92.11653615 411.98597888 82.60117643 416.16172718 69.125 416.375 C64.00413886 416.31969912 59.83256065 415.54493627 55 414 C55.04640625 415.15757812 55.0928125 416.31515625 55.140625 417.5078125 C55.17816248 419.04684906 55.21456051 420.5859137 55.25 422.125 C55.28351563 422.88554687 55.31703125 423.64609375 55.3515625 424.4296875 C55.44410463 429.79713103 54.53257628 432.72303611 51 437 C46.30109046 441.12934474 41.91151147 441.1485839 35.89701843 441.14717102 C35.06156032 441.15084771 34.22610221 441.1545244 33.36532718 441.1583125 C30.55563839 441.16935766 27.74598656 441.17319457 24.9362793 441.17700195 C22.92589195 441.1832659 20.91550576 441.18991264 18.90512085 441.19691467 C13.43606582 441.21432893 7.96701953 441.22487728 2.49794364 441.2331202 C-0.91747645 441.23826873 -4.33289382 441.24434448 -7.748312 441.25063133 C-18.43023496 441.26968333 -29.11215101 441.28391529 -39.79408771 441.2922433 C-52.13257916 441.30202123 -64.47089148 441.3283553 -76.80931979 441.36874419 C-86.34145618 441.39887848 -95.87354113 441.41370956 -105.40572423 441.41702431 C-111.1012807 441.41937756 -116.7966458 441.42837403 -122.49215126 441.45348549 C-127.84950711 441.47672458 -133.206545 441.48101615 -138.56393814 441.47072411 C-140.53036365 441.47022765 -142.4968046 441.47658037 -144.46318245 441.49028015 C-147.14786026 441.50793811 -149.83138942 441.50092317 -152.5160675 441.48774719 C-153.68324899 441.50420106 -153.68324899 441.50420106 -154.87400991 441.52098733 C-160.07222605 441.45939411 -162.99229749 440.27384589 -167 437 C-171.28712794 432.10245318 -171.52291697 428.3181158 -171.25 422.125 C-171.23195312 421.34125 -171.21390625 420.5575 -171.1953125 419.75 C-171.14855148 417.83279811 -171.07682003 415.91623285 -171 414 C-172.00804687 414.32226562 -173.01609375 414.64453125 -174.0546875 414.9765625 C-184.60333786 417.97002682 -196.11604478 416.47670237 -206 412 C-212.36185997 408.26550558 -217.14502819 403.91087857 -221.90722656 398.35498047 C-225.73203329 394.05095741 -229.83662675 390.0159119 -233.9152832 385.9543457 C-235.43491668 384.4400742 -236.94912517 382.9205257 -238.46289062 381.40039062 C-243.24758614 376.61310509 -248.09786198 371.97391067 -253.24047852 367.56811523 C-256.1173951 365.00415864 -258.66922693 362.1692448 -261.25 359.3125 C-267.14729814 352.89528893 -273.21669017 346.66683462 -279.375 340.5 C-280.20676758 339.66380127 -281.03853516 338.82760254 -281.89550781 337.96606445 C-286.21549346 333.65601875 -290.59442403 329.50413237 -295.27099609 325.58178711 C-301.88365085 319.53216975 -307.53357804 310.58394799 -308.17700195 301.50146484 C-308.243809 298.45921543 -308.28490451 295.41786226 -308.3125 292.375 C-308.34150391 291.33214844 -308.37050781 290.28929687 -308.40039062 289.21484375 C-308.52644898 273.68057598 -300.57911785 264.61140777 -290.1328125 253.95458984 C-285.64784521 249.44507925 -281.07064949 245.12262722 -276.2265625 241 C-268.63982028 234.18524207 -261.43261318 226.82889906 -254.83203125 219.05859375 C-249.36604716 212.91664574 -243.46161382 207.00268813 -237.1875 201.6875 C-229.05174042 194.74817566 -221.25182434 186.94825958 -214.3125 178.8125 C-196.43131016 157.91357787 -172.34711082 139.16990857 -143.93383789 136.82983398 C-141.66484033 136.68160304 -139.39579458 136.55488853 -137.125 136.4375 C-136.34125 136.39431641 -135.5575 136.35113281 -134.75 136.30664062 C-132.83349351 136.20146649 -130.91676667 136.10032075 -129 136 C-129.85271484 134.94425781 -129.85271484 134.94425781 -130.72265625 133.8671875 C-147.99046411 111.78514941 -153.75054148 86.16131068 -150.71582031 58.40039062 C-149.92937817 53.45402801 -148.62500635 48.73221198 -147 44 C-146.75330566 43.27989746 -146.50661133 42.55979492 -146.25244141 41.81787109 C-142.83110627 32.16714369 -138.65400596 23.88072215 -132 16 C-131.27683594 15.13890625 -130.55367187 14.2778125 -129.80859375 13.390625 C-116.8973534 -1.42923349 -102.489507 -9.97049402 -84 -16 C-83.01386719 -16.34160156 -82.02773437 -16.68320312 -81.01171875 -17.03515625 C-54.16516822 -24.84572237 -21.65907042 -17.40461016 0 0 Z M-107.0703125 34.46875 C-117.65710911 48.35588402 -122.20450906 64.0865331 -120.5390625 81.515625 C-117.85419385 98.86999335 -109.22979189 114.5070752 -95 125 C-80.76307396 134.66881883 -64.9165254 138.72172644 -47.8125 136.375 C-30.01494595 132.69523545 -15.72214845 123.35963637 -5.2578125 108.53125 C3.64059616 94.541712 6.35232827 79.329931 4 63 C2.98779843 58.5202564 1.64565414 54.28544065 0 50 C-0.32613281 49.15050781 -0.65226562 48.30101562 -0.98828125 47.42578125 C-7.63459059 32.41720634 -20.58629648 21.23548712 -35.5625 15.0625 C-61.58873827 5.94703008 -89.20323691 13.26386908 -107.0703125 34.46875 Z M-188.625 197.125 C-189.13909424 197.69871338 -189.65318848 198.27242676 -190.18286133 198.86352539 C-192.84747642 201.80964655 -195.55847992 204.54221729 -198.58203125 207.12109375 C-204.10642755 211.8615695 -209.19259898 217.04332056 -214.32739258 222.19702148 C-216.058947 223.933936 -217.79578359 225.66543889 -219.53320312 227.39648438 C-226.30280355 234.1432678 -226.30280355 234.1432678 -232.68359375 241.25390625 C-235.89782978 245.02536817 -239.50965185 248.21678777 -243.22070312 251.49169922 C-248.00450171 255.80905223 -252.55061311 260.36462946 -257.10595703 264.9206543 C-258.75666008 266.56915118 -260.41524669 268.20943932 -262.07421875 269.84960938 C-271.8204413 279.01056868 -271.8204413 279.01056868 -278.125 290.5 C-277.67318541 303.15080841 -264.21132882 312.86298406 -255.9375 321.1875 C-255.18194824 321.94788574 -254.42639648 322.70827148 -253.64794922 323.49169922 C-249.46680808 327.66011238 -245.19382349 331.65167253 -240.72143555 335.50561523 C-238.71744489 337.24528717 -236.80973088 339.05703953 -234.9375 340.9375 C-234.34839844 341.52402344 -233.75929687 342.11054688 -233.15234375 342.71484375 C-231.31386046 344.66677247 -229.56198354 346.65671018 -227.8125 348.6875 C-223.75780225 353.34557218 -219.43890747 357.70825156 -215.0625 362.0625 C-213.92264648 363.2081543 -213.92264648 363.2081543 -212.75976562 364.37695312 C-208.55757573 368.57196592 -204.27620575 372.60345446 -199.75488281 376.45336914 C-197.97621719 378.02096051 -196.33339673 379.66945839 -194.6875 381.375 C-191.31954634 384.66462915 -189.80215382 384.94824814 -185.125 385.25 C-179.98639624 385.16529774 -177.3535116 383.3535116 -173.75 379.75 C-171.53585823 376.27063437 -171 374.13459825 -171 370 C-175.08920546 357.93684388 -187.43148994 348.49172597 -196.1875 339.6875 C-197.03054687 338.83961914 -197.87359375 337.99173828 -198.7421875 337.11816406 C-202.44868506 333.42184918 -206.16636229 329.79913235 -210.140625 326.390625 C-214.23546074 322.86897398 -217.90246294 319.02849627 -221.5625 315.0625 C-222.18318359 314.39798828 -222.80386719 313.73347656 -223.44335938 313.04882812 C-225.30834259 311.04382532 -227.15776949 309.02591901 -229 307 C-229.65597168 306.28054199 -230.31194336 305.56108398 -230.98779297 304.81982422 C-231.61959473 304.11486816 -232.25139648 303.40991211 -232.90234375 302.68359375 C-233.75880493 301.73117798 -233.75880493 301.73117798 -234.63256836 300.75952148 C-237.47691255 297.09960565 -237.30241521 293.46062432 -237 289 C-234.85315012 283.50253083 -231.43148613 280.10945275 -227.25 276.125 C-225.97211986 274.87948764 -224.69605431 273.63211061 -223.421875 272.3828125 C-222.81923828 271.79274414 -222.21660156 271.20267578 -221.59570312 270.59472656 C-219.80250977 268.80263063 -218.1302308 266.94115111 -216.5 265 C-209.43880421 256.68108485 -201.43610533 248.95571228 -193.125 241.8984375 C-185.81033778 235.36364736 -178.9704195 228.25688771 -172.625 220.78515625 C-163.9662303 211.27299819 -163.9662303 211.27299819 -158.79296875 210.796875 C-149.94207888 210.6376386 -149.94207888 210.6376386 -146 214 C-142.60761178 217.42430194 -141.53913363 219.83040182 -141.45750165 224.67064458 C-141.46526207 225.40314245 -141.47302248 226.13564031 -141.48101807 226.89033508 C-141.46976619 228.07280635 -141.46976619 228.07280635 -141.458287 229.27916592 C-141.43800798 231.91725454 -141.44611271 234.55448384 -141.45410156 237.19262695 C-141.44536665 239.08497467 -141.43488116 240.97731501 -141.42277527 242.86964417 C-141.39488463 248.00560655 -141.39151127 253.1413283 -141.39249516 258.27735543 C-141.3893687 263.64526034 -141.36375605 269.01305644 -141.34051514 274.38090515 C-141.29993117 284.5451198 -141.27960877 294.70927025 -141.26654124 304.87355345 C-141.2477138 318.60893481 -141.19763735 332.34419978 -141.14929771 346.07950306 C-141.07396293 367.71966268 -141.04042275 389.35968181 -141 411 C-86.22 411 -31.44 411 25 411 C25.00386719 390.33181641 25.00386719 390.33181641 25.0078125 369.24609375 C25.02275607 360.52797104 25.03920849 351.80989466 25.0625 343.09179688 C25.09920479 329.24759728 25.12966881 315.40358145 25.12011719 301.55932617 C25.11318945 291.4770816 25.12722498 281.39512147 25.16643608 271.31294686 C25.18646634 265.97439977 25.19599708 260.63629941 25.18042374 255.29772758 C25.16609357 250.2717742 25.17981393 245.24667439 25.21495247 240.22083092 C25.2229143 238.37740856 25.2206703 236.53390915 25.20739174 234.69051743 C25.10406159 219.01911484 25.10406159 219.01911484 28.86080933 214.41127014 C32.63780292 211.51009183 35.17159352 210.82294888 39.8125 210.6875 C40.64394531 210.65011719 41.47539062 210.61273438 42.33203125 210.57421875 C48.28152097 211.52369808 52.36484516 216.11232455 56.4375 220.25 C56.91775635 220.73670166 57.3980127 221.22340332 57.89282227 221.72485352 C60.49990996 224.38809251 63.01540288 227.10578351 65.4375 229.9375 C71.35037812 236.84533357 77.87303398 243.43365106 84.8125 249.3125 C93.63805874 256.84018245 101.99146672 265.35155361 109.4453125 274.234375 C111.89102914 277.01192254 114.59652252 279.51934813 117.30078125 282.04296875 C120.1099943 285.27840722 120.92845304 288.21298341 121.3125 292.4375 C120.71185131 299.28489501 117.08066366 303.31391298 112.25 307.875 C111.16606111 308.92642235 110.08402213 309.97980695 109.00390625 311.03515625 C108.4845752 311.54191895 107.96524414 312.04868164 107.43017578 312.57080078 C105.00346127 314.99585827 102.79868022 317.59798013 100.5703125 320.203125 C96.81979452 324.49476249 92.7393877 328.40110543 88.40625 332.09765625 C83.37535892 336.48223969 78.65654892 341.15950725 73.9375 345.875 C73.07833984 346.72191406 72.21917969 347.56882812 71.33398438 348.44140625 C61.45523611 358.04620068 61.45523611 358.04620068 55 370 C55.13984339 374.80403181 56.41593733 378.28115364 59.4375 382 C63.2046627 384.94022455 66.16988474 385.14391705 70.8671875 385.328125 C76.0174972 384.53576966 79.34175938 380.86091592 82.8125 377.25 C85.67967129 374.27525132 88.59573055 371.45327282 91.7265625 368.76171875 C96.55710398 364.57808929 101.05635315 360.09022457 105.5625 355.5625 C106.37396484 354.75490234 107.18542969 353.94730469 108.02148438 353.11523438 C112.33517363 348.79458194 116.50144148 344.40678726 120.46484375 339.76171875 C124.19726196 335.47846019 128.27244437 331.5890353 132.5859375 327.8984375 C137.62606915 323.50261613 142.42054907 318.87624592 147.1875 314.1875 C148.06341797 313.34896484 148.93933594 312.51042969 149.84179688 311.64648438 C158.65410606 303.0473133 158.65410606 303.0473133 162.04833984 291.60473633 C161.10696547 285.87371201 158.36728378 282.34950255 154.3125 278.375 C153.71743652 277.76527344 153.12237305 277.15554688 152.50927734 276.52734375 C151.14654549 275.13855519 149.77479375 273.75858188 148.39599609 272.38574219 C146.16672251 270.16600901 143.95346552 267.93122449 141.74473572 265.69107056 C130.56303805 254.16137915 130.56303805 254.16137915 118.7421875 243.3125 C115.53333227 240.56245655 112.84977726 237.59809448 110.11669922 234.38330078 C105.75153399 229.4683362 101.03068193 224.8839135 96.37573242 220.24536133 C94.56639067 218.44137915 92.76245681 216.63211335 90.95898438 214.82226562 C85.62134106 209.48218761 80.27850658 204.23590052 74.52758789 199.33618164 C72.64990944 197.69377567 71.02449673 195.9226279 69.4375 194 C56.77353592 179.19685279 41.48668388 169.32293508 21.81787682 167.21188927 C15.90995872 166.76764542 9.98505574 166.852357 4.0637207 166.85473633 C2.56788551 166.85173927 1.07205108 166.84833549 -0.42378235 166.84455872 C-4.46538701 166.83576897 -8.50697045 166.8333827 -12.54858375 166.83274293 C-15.08065301 166.83202944 -17.61271698 166.82988945 -20.14478493 166.82724571 C-28.99846358 166.81800809 -37.85212723 166.81390874 -46.70581055 166.81469727 C-54.92581403 166.81529725 -63.14575172 166.80475685 -71.36573857 166.7889536 C-78.44973515 166.77582541 -85.53371036 166.77051559 -92.61771899 166.77115268 C-96.83673439 166.77140616 -101.05569129 166.76863825 -105.27469444 166.75797462 C-109.24826952 166.74820458 -113.22173123 166.74827463 -117.19531059 166.75549126 C-118.6423535 166.75652621 -120.0894038 166.75424014 -121.53643417 166.7481308 C-150.78605993 166.63277344 -169.11329001 175.79246096 -188.625 197.125 Z M-175.859375 266.7265625 C-177.03886719 267.90412109 -177.03886719 267.90412109 -178.2421875 269.10546875 C-179.06976563 269.93691406 -179.89734375 270.76835937 -180.75 271.625 C-181.56210938 272.43324219 -182.37421875 273.24148438 -183.2109375 274.07421875 C-187.36691506 278.236965 -191.27612622 282.45091024 -195 287 C-196.63072616 288.37705764 -198.2866438 289.72722111 -200 291 C-198.61272438 294.09567985 -196.98813723 296.30302851 -194.65625 298.7578125 C-193.99117432 299.46172119 -193.32609863 300.16562988 -192.64086914 300.89086914 C-191.93438232 301.62813232 -191.22789551 302.36539551 -190.5 303.125 C-189.78255615 303.87966553 -189.0651123 304.63433105 -188.32592773 305.41186523 C-180.3370708 313.88149136 -180.3370708 313.88149136 -172 322 C-171.67 322 -171.34 322 -171 322 C-171 302.53 -171 283.06 -171 263 C-172.98842824 263 -174.55985771 265.42908939 -175.859375 266.7265625 Z M55 263 C55 282.47 55 301.94 55 322 C60.39105561 317.4312311 60.39105561 317.4312311 65.5 312.6328125 C66.36117432 311.77502197 66.36117432 311.77502197 67.23974609 310.89990234 C68.11107178 310.02132568 68.11107178 310.02132568 69 309.125 C69.6079541 308.51221191 70.2159082 307.89942383 70.84228516 307.26806641 C79.42263609 299.82234641 79.42263609 299.82234641 83 290 C81.49404439 288.26680317 81.49404439 288.26680317 79.4375 286.75 C76.61259227 284.41809537 74.10931429 282.11454981 71.75 279.3125 C68.54314274 275.53139155 65.12468924 272.00742279 61.625 268.5 C61.08842773 267.95899658 60.55185547 267.41799316 59.99902344 266.8605957 C57.85890206 264.20362998 57.85890206 264.20362998 55 263 Z " fill="#020202" transform="translate(308,45)"/>
<path d="M0 0 C1.06488647 -0.0038269 2.12977295 -0.00765381 3.22692871 -0.01159668 C5.47274728 -0.0143121 7.71859767 -0.00697694 9.96435547 0.00976562 C13.39492544 0.03117931 16.82340114 0.00995009 20.25390625 -0.015625 C22.44010877 -0.01298166 24.62631 -0.00785656 26.8125 0 C27.83452515 -0.00809692 28.85655029 -0.01619385 29.9095459 -0.02453613 C35.90406433 0.0540978 39.32878095 0.56556679 43.90625 4.53125 C47.33542072 8.23114473 48.20594749 11.1104849 48.40625 16.03125 C48.20594749 20.9520151 47.33542072 23.83135527 43.90625 27.53125 C38.50580762 32.20991488 33.77859376 32.1176884 26.8125 32.0625 C25.74761353 32.0663269 24.68272705 32.07015381 23.58557129 32.07409668 C21.33975272 32.0768121 19.09390233 32.06947694 16.84814453 32.05273438 C13.41757456 32.03132069 9.98909886 32.05254991 6.55859375 32.078125 C4.37239123 32.07548166 2.18619 32.07035656 0 32.0625 C-1.02202515 32.07059692 -2.04405029 32.07869385 -3.0970459 32.08703613 C-9.09156433 32.0084022 -12.51628095 31.49693321 -17.09375 27.53125 C-20.52292072 23.83135527 -21.39344749 20.9520151 -21.59375 16.03125 C-21.39344749 11.1104849 -20.52292072 8.23114473 -17.09375 4.53125 C-11.69330762 -0.14741488 -6.96609376 -0.0551884 0 0 Z " fill="#040404" transform="translate(425.09375,87.46875)"/>
<path d="M0 0 C1.06488647 -0.0038269 2.12977295 -0.00765381 3.22692871 -0.01159668 C5.47274728 -0.0143121 7.71859767 -0.00697694 9.96435547 0.00976562 C13.39492544 0.03117931 16.82340114 0.00995009 20.25390625 -0.015625 C22.44010877 -0.01298166 24.62631 -0.00785656 26.8125 0 C27.83452515 -0.00809692 28.85655029 -0.01619385 29.9095459 -0.02453613 C35.90406433 0.0540978 39.32878095 0.56556679 43.90625 4.53125 C47.33542072 8.23114473 48.20594749 11.1104849 48.40625 16.03125 C48.20594749 20.9520151 47.33542072 23.83135527 43.90625 27.53125 C38.50580762 32.20991488 33.77859376 32.1176884 26.8125 32.0625 C25.74761353 32.0663269 24.68272705 32.07015381 23.58557129 32.07409668 C21.33975272 32.0768121 19.09390233 32.06947694 16.84814453 32.05273438 C13.41757456 32.03132069 9.98909886 32.05254991 6.55859375 32.078125 C4.37239123 32.07548166 2.18619 32.07035656 0 32.0625 C-1.02202515 32.07059692 -2.04405029 32.07869385 -3.0970459 32.08703613 C-9.09156433 32.0084022 -12.51628095 31.49693321 -17.09375 27.53125 C-20.52292072 23.83135527 -21.39344749 20.9520151 -21.59375 16.03125 C-21.39344749 11.1104849 -20.52292072 8.23114473 -17.09375 4.53125 C-11.69330762 -0.14741488 -6.96609376 -0.0551884 0 0 Z " fill="#040404" transform="translate(48.09375,87.46875)"/>
<path d="M0 0 C5.31423218 3.04702064 10.35019606 6.34486818 15.3137207 9.93286133 C16.79515494 10.99583059 18.27692437 12.05833287 19.7590332 13.12036133 C20.46447266 13.62696289 21.16991211 14.13356445 21.89672852 14.65551758 C24.45771034 16.46980958 27.07508751 18.19560959 29.6887207 19.93286133 C33.41025002 22.57660533 36.02337848 24.76263618 37.8762207 29.05786133 C38.64680712 34.06667304 38.46248598 37.84023344 36.2512207 42.43286133 C32.47620131 46.60525118 29.18078005 49.24674006 23.5012207 49.93286133 C15.97585275 49.61695383 9.9670182 44.61980546 3.96948242 40.49536133 C1.90241754 39.07585141 -0.18231074 37.68754735 -2.27612305 36.30786133 C-5.90672243 33.91258598 -9.51658493 31.48824051 -13.1237793 29.05786133 C-14.2169043 28.34500977 -15.3100293 27.6321582 -16.4362793 26.89770508 C-19.58162485 24.74442346 -20.75690411 23.62692432 -22.1237793 20.05786133 C-22.775836 14.79310721 -22.77441391 10.48925748 -20.5612793 5.62036133 C-14.90403154 -0.32700169 -7.960218 -3.53126581 0 0 Z " fill="#060606" transform="translate(71.123779296875,14.942138671875)"/>
<path d="M0 0 C4.3648506 2.27198487 6.94610985 4.88844102 8.99609375 9.31640625 C9.93364478 15.16401837 9.45604375 19.48968032 6.30761719 24.64526367 C4.00712281 27.57655258 1.08084916 29.19572049 -2.12890625 31.00390625 C-3.55252842 31.84731826 -4.97433069 32.69380783 -6.39453125 33.54296875 C-7.14025391 33.98543945 -7.88597656 34.42791016 -8.65429688 34.88378906 C-12.81401692 37.42007722 -16.84081101 40.15463909 -20.87890625 42.87890625 C-22.39659372 43.90184582 -23.9147822 44.92404266 -25.43359375 45.9453125 C-26.07538574 46.3791626 -26.71717773 46.8130127 -27.37841797 47.26000977 C-31.69429893 50.06487863 -35.98131785 49.86502744 -41.00390625 49.31640625 C-45.84249173 46.98671694 -48.67421694 44.15499173 -51.00390625 39.31640625 C-51.76424455 34.55265403 -51.56453707 30.65124154 -49.69140625 26.19140625 C-46.17101664 22.42540806 -42.30060991 19.60911356 -38.04785156 16.7109375 C-35.52199192 14.98760851 -33.00987528 13.24480388 -30.49609375 11.50390625 C-28.49940038 10.12788637 -26.50199655 8.75289688 -24.50390625 7.37890625 C-23.52373535 6.70351807 -22.54356445 6.02812988 -21.53369141 5.33227539 C-20.6060498 4.69926514 -19.6784082 4.06625488 -18.72265625 3.4140625 C-17.88669922 2.84179932 -17.05074219 2.26953613 -16.18945312 1.67993164 C-11.33327857 -1.34975278 -5.42270099 -1.84984927 0 0 Z " fill="#060606" transform="translate(442.00390625,14.68359375)"/>
<path d="M0 0 C2.24755859 1.0703125 2.24755859 1.0703125 4.5234375 2.5 C5.39033203 3.04317871 6.25722656 3.58635742 7.15039062 4.14599609 C12.43159628 7.58203754 17.66695204 11.07909501 22.875 14.625 C23.99990804 15.38294901 25.12490761 16.14076217 26.25 16.8984375 C27.31992187 17.62546875 28.38984375 18.3525 29.4921875 19.1015625 C30.45495605 19.75463379 31.41772461 20.40770508 32.40966797 21.08056641 C36.00316935 23.74334754 38.56750639 25.70251918 40 30 C40.51549132 34.90984358 40.53143398 38.8521026 38.4375 43.375 C34.34883853 47.77817389 30.60790357 50.1761694 24.625 50.5625 C15.30354919 50.04551197 7.83038568 42.84241168 0.578125 37.55859375 C-2.7293016 35.16402406 -6.12598669 32.95495497 -9.5625 30.75 C-17.61661829 25.34115955 -17.61661829 25.34115955 -20 21 C-20.86821089 15.68718657 -20.68575593 11.45063754 -18.375 6.5625 C-12.7801325 0.52593244 -8.08254414 -1.40827863 0 0 Z " fill="#060606" transform="translate(411,143)"/>
<path d="M0 0 C4.83858548 2.32968931 7.67031069 5.16141452 10 10 C10.63466305 14.44264136 10.54507708 18.43744571 9.0625 22.6875 C2.84599504 29.65752071 -5.57661707 34.46076585 -13.32421875 39.55859375 C-17.30193414 42.18263098 -21.18494244 44.93129343 -25.046875 47.72265625 C-29.39692167 50.56758677 -33.98033024 50.59300591 -39 50 C-42.90895599 48.66653548 -45.59294491 46.42792971 -48.4375 43.4375 C-50.60156171 38.67656424 -51.29070534 34.11424642 -50 29 C-46.37233569 23.72299721 -41.83450053 20.14914135 -36.484375 16.7578125 C-35.78733459 16.30397186 -35.09029419 15.85013123 -34.37213135 15.38253784 C-32.17120233 13.95309106 -29.96086106 12.53902385 -27.75 11.125 C-26.25197243 10.15462039 -24.75457042 9.18327434 -23.2578125 8.2109375 C-9.05756675 -0.98936498 -9.05756675 -0.98936498 0 0 Z " fill="#060606" transform="translate(99,143)"/>
</svg>
